<svg width="44" height="44" viewBox="0 0 44 44" fill="none" xmlns="http://www.w3.org/2000/svg">
<circle cx="22" cy="22" r="22" fill="#E64614"/>
<path d="M29.5568 31.7364C29.8722 31.3042 30.2087 30.9661 30.5477 30.6239C30.9934 30.1738 31.444 29.7197 31.8595 29.0426C31.9649 28.8729 32.0692 28.7091 32.1724 28.5512C32.5432 27.9787 32.8732 27.4711 32.9335 26.9521C33.0117 26.2904 33.0606 22.317 32.8455 21.7154C32.6296 21.1145 31.3869 20.7771 30.9575 22.1232C30.7457 22.7874 30.6788 23.6412 30.6186 24.4165C30.5558 25.2111 30.5004 25.9231 30.3008 26.2588C29.9072 26.9221 28.6401 28.5723 28.6401 28.5723L29.7336 26.5069C29.7336 26.5069 29.8999 26.2215 29.8127 25.679C29.7247 25.1357 29.0655 24.3767 28.7558 24.98C28.4462 25.5825 27.9043 26.1266 27.9043 26.1266L25.9911 28.4207C25.9911 28.4207 25.3678 29.2251 25.3506 29.6662C25.3449 29.8138 25.2529 30.1414 25.1469 30.512C25.0288 30.9304 24.8943 31.404 24.852 31.7364V32.5416H29.556L29.5568 31.7364ZM14.4033 31.7364C14.0864 31.3042 13.749 30.9661 13.4092 30.6239C12.9611 30.1738 12.5096 29.7197 12.0925 29.0426C11.9871 28.8729 11.8825 28.7088 11.7787 28.5504C11.4064 27.9787 11.0764 27.4719 11.0152 26.9529C10.9362 26.2904 11.1798 22.317 11.3958 21.7154C11.6125 21.1145 12.8592 20.7771 13.2903 22.1232C13.5021 22.7874 13.5697 23.6412 13.6309 24.4165C13.6928 25.2111 13.749 25.9231 13.9486 26.2588C14.3438 26.9221 15.615 28.5723 15.615 28.5723L14.5182 26.5069C14.5182 26.5069 14.3512 26.2215 14.4392 25.679C14.5272 25.1357 15.1888 24.3767 15.4993 24.98C15.8105 25.5825 16.354 26.1266 16.354 26.1266L18.273 28.4207C18.273 28.4207 18.8988 29.2251 18.9159 29.6662C18.9281 29.98 19.0683 31.1096 19.1481 31.7364V32.5416H14.4033V31.7364ZM18.9697 11.4583C16.7183 11.4583 15.0739 13.8797 15.0739 16.4916C15.0739 22.3219 22.4075 26.0545 22.4075 26.0545C22.4075 26.0545 29.741 22.0811 29.741 16.4916C29.741 13.8805 28.0966 11.4583 25.8452 11.4583C24.2824 11.4583 23.1237 12.5449 22.4075 14.0856C21.692 12.5449 20.5325 11.4583 18.9697 11.4583Z" fill="white"/>
</svg>
