<svg width="44" height="44" viewBox="0 0 44 44" fill="none" xmlns="http://www.w3.org/2000/svg">
<circle cx="22" cy="22" r="22" fill="#E64614"/>
<path d="M11.1393 18.6658L14.6784 12.519C14.785 12.3415 14.9113 12.2134 15.0573 12.1348C15.2024 12.0562 15.364 12.0169 15.5419 12.0169C15.7199 12.0169 15.8814 12.0562 16.0266 12.1348C16.1718 12.2134 16.298 12.3415 16.4055 12.519L19.9433 18.667C20.0459 18.8356 20.0922 19.0038 20.0824 19.1716C20.0717 19.3402 20.0233 19.5002 19.9372 19.6516C19.8552 19.8005 19.7404 19.9204 19.5928 20.0113C19.4451 20.1021 19.2729 20.1475 19.0761 20.1475H12.0065C11.8105 20.1475 11.6387 20.1021 11.4911 20.0113C11.3435 19.9204 11.2287 19.8005 11.1467 19.6516C11.0605 19.5002 11.0122 19.3406 11.0015 19.1728C10.9908 19.005 11.0372 18.8364 11.1405 18.667M15.5653 32.5417C14.354 32.5417 13.3297 32.1239 12.4924 31.2883C11.6551 30.4527 11.2365 29.4338 11.2365 28.2315C11.2365 27.0121 11.6547 25.9853 12.4912 25.1514C13.3293 24.3182 14.354 23.9016 15.5653 23.9016C16.7766 23.9016 17.8009 24.3194 18.6382 25.1551C19.4755 25.9907 19.8941 27.0125 19.8941 28.2204C19.8941 29.4284 19.4755 30.4506 18.6382 31.2871C17.8009 32.1235 16.7766 32.5413 15.5653 32.5405M15.5653 31.3128C16.4305 31.3128 17.1632 31.0137 17.7635 30.4155C18.3639 29.8172 18.664 29.0855 18.664 28.2204C18.664 27.3554 18.3639 26.6237 17.7635 26.0254C17.1632 25.4272 16.4305 25.128 15.5653 25.128C14.7001 25.128 13.9669 25.4272 13.3658 26.0254C12.7647 26.6237 12.4654 27.3554 12.4678 28.2204C12.4703 29.0855 12.77 29.8168 13.367 30.4142C13.9641 31.0117 14.696 31.3112 15.5653 31.3128ZM12.4137 18.9187H18.6923L15.5419 13.5012L12.4137 18.9187ZM23.5132 31.5498V24.8911C23.5132 24.6104 23.6083 24.3751 23.7986 24.1852C23.9889 23.9954 24.225 23.9004 24.5071 23.9004H31.1782C31.4595 23.9004 31.6956 23.9954 31.8867 24.1852C32.0778 24.3751 32.1729 24.6108 32.1721 24.8923V31.5498C32.1721 31.8305 32.077 32.0658 31.8867 32.2557C31.6965 32.4455 31.4603 32.5405 31.1782 32.5405H24.5071C24.2259 32.5405 23.9901 32.4455 23.7998 32.2557C23.6096 32.0658 23.514 31.8305 23.5132 31.5498ZM24.7433 31.3128H30.942V25.128H24.7433V31.3128ZM27.2085 19.6369L26.1469 18.7751C25.0792 17.9182 24.2353 17.1198 23.6153 16.3799C22.9953 15.6401 22.6853 14.8421 22.6853 13.9861C22.6853 13.2544 22.9256 12.6504 23.4062 12.1741C23.8859 11.6969 24.4973 11.4584 25.2403 11.4584C25.7307 11.4584 26.1892 11.5783 26.6156 11.8181C27.042 12.0579 27.4513 12.4188 27.8433 12.9008C28.2345 12.4352 28.6511 12.0783 29.0931 11.8303C29.5359 11.5824 29.9944 11.4584 30.4684 11.4584C31.1901 11.4584 31.7924 11.7092 32.2754 12.2109C32.7585 12.7134 33 13.3289 33 14.0573C33 14.8962 32.69 15.6782 32.07 16.4033C31.45 17.1284 30.6062 17.919 29.5384 18.7751L28.4768 19.6369C28.298 19.794 28.0864 19.8726 27.842 19.8726C27.5977 19.8726 27.3865 19.794 27.2085 19.6369ZM27.842 18.5529C29.2715 17.4513 30.2835 16.558 30.878 15.8729C31.4726 15.1879 31.7699 14.5798 31.7699 14.0487C31.7699 13.6567 31.6456 13.3313 31.3971 13.0727C31.1486 12.8149 30.8358 12.686 30.4585 12.686C30.1945 12.686 29.9361 12.7658 29.6836 12.9254C29.4326 13.085 29.0849 13.387 28.6404 13.8314L27.842 14.6122L27.0449 13.8314C26.5848 13.3714 26.2338 13.0658 25.9919 12.9143C25.7492 12.7621 25.4937 12.686 25.2255 12.686C24.8335 12.686 24.5174 12.8034 24.2771 13.0383C24.0368 13.2732 23.9163 13.594 23.9155 14.0008C23.9155 14.5647 24.2127 15.1887 24.8073 15.8729C25.4019 16.5571 26.4134 17.4504 27.842 18.5529Z" fill="white"/>
</svg>
