<svg width="44" height="44" viewBox="0 0 44 44" fill="none" xmlns="http://www.w3.org/2000/svg">
<circle cx="22" cy="22" r="22" fill="#E64614"/>
<path d="M28.2338 23.4103H21.2027L21.4181 23.2031L23.257 21.4351C23.9997 21.7947 24.8181 21.9864 25.6496 21.9956C26.4866 21.9977 27.3079 21.7775 28.0229 21.3593C30.1973 20.0936 31.3624 17.1638 31.1397 13.5219C31.1292 13.3494 31.0532 13.1866 30.9261 13.0644C30.7991 12.9422 30.6297 12.8691 30.4503 12.859C26.6626 12.6457 23.6155 13.7651 22.2991 15.8558C21.4411 17.2176 21.4191 18.8622 22.2193 20.4391L20.9002 21.7074L19.7809 20.6312C20.3309 19.4634 20.2915 18.2514 19.6535 17.2396C18.6571 15.654 16.3727 14.8087 13.5419 14.9682C13.3628 14.9785 13.1938 15.0515 13.067 15.1735C12.9401 15.2955 12.8641 15.458 12.8535 15.6302C12.6866 18.351 13.5666 20.5475 15.2167 21.5064C15.7687 21.8305 16.4033 22.0014 17.0501 22C17.6369 21.9944 18.2157 21.8685 18.7478 21.6307L19.8625 22.7051L19.1292 23.4103H15.0334C14.8389 23.4103 14.6523 23.4846 14.5148 23.6168C14.3773 23.749 14.3 23.9284 14.3 24.1154C14.3 24.3024 14.3773 24.4817 14.5148 24.614C14.6523 24.7462 14.8389 24.8205 15.0334 24.8205H15.9125L17.1234 30.0622C17.1944 30.3761 17.3754 30.6571 17.636 30.8581C17.8966 31.0592 18.2212 31.168 18.5553 31.1666H24.7127C25.0469 31.168 25.3714 31.0592 25.6321 30.8581C25.8927 30.6571 26.0736 30.3761 26.1446 30.0622L27.3556 24.8205H28.2338C28.4283 24.8205 28.6148 24.7462 28.7523 24.614C28.8899 24.4817 28.9671 24.3024 28.9671 24.1154C28.9671 23.9284 28.8899 23.749 28.7523 23.6168C28.6148 23.4846 28.4283 23.4103 28.2338 23.4103ZM23.5586 16.5865C24.5175 15.0652 26.7891 14.2067 29.7005 14.2446C29.7381 17.0483 28.847 19.2316 27.2648 20.15C26.2097 20.767 24.9364 20.7264 23.664 20.046C22.9554 18.827 22.9169 17.601 23.5586 16.5865ZM18.3435 20.2469C17.5002 20.6815 16.6651 20.7017 15.9757 20.2998C14.9215 19.6855 14.3138 18.2373 14.3 16.3591C16.2535 16.3723 17.7605 16.9567 18.3985 17.9703C18.8166 18.6331 18.7918 19.436 18.3435 20.2469ZM24.7127 29.7563H18.5553L17.4168 24.8205H25.8504L24.7127 29.7563Z" fill="white"/>
</svg>
