<svg width="250" height="6" viewBox="0 0 250 6" fill="none" xmlns="http://www.w3.org/2000/svg">
<mask id="mask0_80_129" style="mask-type:alpha" maskUnits="userSpaceOnUse" x="0" y="0" width="250" height="6">
<rect width="250" height="6" fill="#C4C4C4"/>
</mask>
<g mask="url(#mask0_80_129)">
<path d="M37.5505 -1.26886L38.1615 -1.34795L36.9725 -1.46134L37.5425 -1.54434C38.114 -1.54358 38.8545 -1.41921 39.2575 -1.48529C39.3067 -1.54927 38.6844 -1.56981 38.5256 -1.62078C38.385 -1.67303 38.2704 -1.72494 38.1829 -1.77589C38.4941 -1.77534 38.8363 -1.76302 39.1891 -1.73964C39.6637 -1.70147 40.1291 -1.68291 40.5342 -1.68602C41.3624 -1.67571 42.1626 -1.686 43.063 -1.68373L42.7634 -1.83771L43.9239 -1.80169C44.0469 -1.78996 44.1935 -1.80882 44.3144 -1.79431C45.3201 -1.67152 45.7457 -1.73843 46.2285 -1.79391C46.3275 -1.80827 46.4467 -1.81899 46.5831 -1.82579C47.9247 -1.79638 49.1346 -1.62427 50.3428 -1.53591C50.5702 -1.51335 50.7883 -1.4844 50.9817 -1.45109C51.402 -1.38635 51.8694 -1.3335 52.3414 -1.29736C52.8133 -1.26122 53.2746 -1.24296 53.6831 -1.24423C54.5864 -1.24566 55.607 -1.20284 56.6461 -1.11992C56.9551 -1.0926 57.2643 -1.07458 57.554 -1.06701C57.8437 -1.05943 58.1076 -1.06246 58.3286 -1.07591L59.0312 -0.988014C59.3357 -1.02368 59.7218 -1.04325 60.1661 -1.04553C60.6105 -1.04782 61.1037 -1.03276 61.6159 -1.00129C62.1618 -0.967154 62.7162 -0.94414 63.2825 -0.908045C64.4524 -0.839039 65.591 -0.796838 66.6628 -0.782751C68.2591 -0.741004 69.8186 -0.708728 71.4289 -0.656681C72.4363 -0.631559 73.4179 -0.617741 74.3677 -0.615301C75.5054 -0.605475 76.7361 -0.557905 78.0004 -0.474887C77.9405 -0.396997 77.3861 -0.420008 77.014 -0.422644C75.8137 -0.43559 74.5853 -0.469137 73.3504 -0.494338C72.7941 -0.504175 72.2531 -0.507902 71.7306 -0.505489C70.857 -0.508717 69.9361 -0.529471 68.9836 -0.567396C67.479 -0.609126 66.0224 -0.629185 64.6288 -0.627369C64.5196 -0.624283 64.4195 -0.618817 64.3302 -0.611059C64.3116 -0.60434 64.3079 -0.595867 64.3195 -0.586454C64.3311 -0.577042 64.3577 -0.567 64.3966 -0.557296C64.4355 -0.547592 64.4855 -0.538551 64.5417 -0.531035C64.598 -0.523517 64.6587 -0.517775 64.7179 -0.514363C65.2714 -0.461578 65.8659 -0.404884 66.3879 -0.396909C66.4081 -0.396313 66.4296 -0.394952 66.4508 -0.392923C66.4721 -0.390895 66.4926 -0.388249 66.5109 -0.385179C67.6794 -0.273743 68.6401 -0.2926 69.5504 -0.274469C71.0616 -0.22547 72.5184 -0.202582 73.8988 -0.206152C74.1074 -0.205909 74.3326 -0.199539 74.5664 -0.187272C76.0121 -0.137548 77.364 -0.131986 78.5586 -0.17084C79.0502 -0.180683 79.5074 -0.20278 80.0358 -0.20315C80.3612 -0.204671 80.6445 -0.218771 80.8686 -0.244609C81.0927 -0.270447 81.2529 -0.307486 81.3398 -0.353501C81.5627 -0.329275 81.7891 -0.307684 82.0162 -0.288988C82.1519 -0.278297 82.282 -0.275457 82.3803 -0.281052C82.4785 -0.286646 82.5376 -0.300256 82.5456 -0.319128C82.5862 -0.371982 82.2766 -0.398525 82.008 -0.421158C82.17 -0.432494 82.3525 -0.439161 82.5513 -0.441003C83.6708 -0.45308 84.8715 -0.438825 86.1275 -0.398553C87.1026 -0.350349 87.881 -0.389584 88.9069 -0.321606C89.0299 -0.309876 89.1312 -0.327093 89.2444 -0.331226C89.5396 -0.352996 89.9073 -0.357888 90.3157 -0.345478C90.7241 -0.333066 91.1608 -0.303726 91.5881 -0.259999C92.1201 -0.379461 93.2694 -0.242987 94.1181 -0.230721C94.3794 -0.16997 94.0796 -0.18065 94.0667 -0.163959C94.0539 -0.147269 94.0667 -0.163963 93.9642 -0.173738C93.1168 -0.0877031 91.9558 -0.068943 90.6442 -0.120094C90.4016 -0.119882 90.1705 -0.115963 89.953 -0.108374C89.6236 -0.0976331 89.2523 -0.0987051 88.8552 -0.111544C88.4213 -0.120974 88.0228 -0.116495 87.6788 -0.0983253C87.4809 -0.0986211 87.3135 -0.0895194 87.1922 -0.0718562C87.0709 -0.0541926 86.9996 -0.0285417 86.9849 0.00271292C87.117 0.0268072 87.2636 0.0488544 87.4188 0.0679782C88.229 0.143487 89.0371 0.174742 89.6838 0.155595C90.8095 0.122601 92.149 0.154798 93.3459 0.143534C94.155 0.138971 95.0161 0.151968 95.9127 0.182282C95.9127 0.182282 95.8891 0.212881 95.887 0.215663C95.993 0.228912 96.1045 0.239541 96.215 0.246944C96.215 0.246944 96.215 0.246944 96.2257 0.233036C96.1765 0.219678 96.1099 0.207114 96.0335 0.196794L95.767 0.171378C95.9481 0.164764 96.1174 0.145071 96.3062 0.157103C96.7039 0.179457 97.084 0.188894 97.4237 0.184853C97.7634 0.180813 98.0556 0.163376 98.2826 0.133591C98.6852 0.0954183 99.1858 0.0780582 99.7522 0.0826334C100.186 0.0784659 100.605 0.069508 101.005 0.0558065C101.005 0.0558065 101.031 0.0224283 101.221 0.00468676C101.041 -0.0171949 100.853 -0.0350627 100.667 -0.0480969C99.8559 -0.0806613 99.0426 -0.110444 98.2456 -0.132708C97.952 -0.135113 97.676 -0.131382 97.4229 -0.12159C96.7216 -0.11013 95.9337 -0.126394 95.1052 -0.169435C95.1052 -0.169435 94.9412 -0.185075 94.8592 -0.192895C95.0917 -0.266271 95.8933 -0.192813 96.2176 -0.242505C96.4149 -0.241601 96.7623 -0.235351 96.7503 -0.248434C96.7233 -0.265891 96.72 -0.282109 96.7409 -0.295923C96.7617 -0.309738 96.806 -0.320808 96.8707 -0.328338C96.9354 -0.335869 97.0188 -0.339676 97.115 -0.339482C97.2112 -0.339289 97.3178 -0.335099 97.4271 -0.327219C98.3396 -0.284587 99.1991 -0.272732 99.9528 -0.292378C100.239 -0.291999 100.559 -0.279364 100.843 -0.276202C101.016 -0.272395 101.175 -0.274512 101.309 -0.282438C101.995 -0.340809 102.917 -0.345072 103.937 -0.294586C104.431 -0.276435 104.891 -0.274008 105.296 -0.287429C105.584 -0.289831 105.706 -0.24833 105.911 -0.22878L106.782 -0.187568L105.664 -0.135928C105.903 -0.0175868 106.093 0.0214349 106.483 0.0288075C107.053 0.0399412 107.607 0.0449717 108.144 0.0438666C108.541 0.0428935 108.868 0.0174079 109.406 0.0626743C109.501 0.070058 109.592 0.0724474 109.664 0.0694429C110.294 0.0292556 111.051 0.0200323 111.886 0.0424033C112.318 -0.0328508 113.054 0.040316 113.734 0.0992682C113.954 0.0425818 113.556 0.0165612 113.319 -0.0180261C113.888 -0.0144864 114.462 -0.0165079 115.049 -0.00823027C115.226 -0.0112436 115.428 -0.0060886 115.64 0.00682786C115.851 0.0197443 116.066 0.0400695 116.268 0.0662139C116.367 0.0831065 116.486 0.0958214 116.6 0.101716C116.714 0.107611 116.815 0.106236 116.882 0.0978755C117.187 0.0732187 117.676 0.0959288 117.928 0.054279C118.018 0.0447007 118.146 0.0433633 118.289 0.0505015C118.433 0.0576397 118.583 0.0727909 118.712 0.0932388C118.571 0.0996188 118.445 0.109666 118.337 0.123157C117.951 0.166985 118.093 0.240216 118.583 0.346682C119.336 0.340827 120.105 0.34249 120.802 0.322424C121.191 0.304412 121.668 0.310042 122.178 0.338684C122.689 0.367326 123.213 0.417843 123.692 0.484554C123.866 0.510208 124.063 0.527974 124.246 0.534328C124.429 0.540682 124.583 0.535157 124.678 0.518848C124.737 0.499986 124.756 0.476115 124.732 0.449303L124.24 0.402385C124.24 0.402385 124.259 0.377349 124.263 0.371785L124.97 0.367579C125.345 0.367433 125.735 0.374807 126.089 0.372707C126.608 0.358734 127.201 0.366522 127.832 0.395587C128.413 0.425389 128.984 0.447917 129.54 0.462969C130.078 0.478464 130.468 0.429069 130.981 0.421181C131.368 0.415235 131.794 0.42159 132.242 0.439995C133.017 0.47264 133.728 0.472701 134.311 0.440171C134.99 0.615433 135.32 0.643929 135.951 0.596571L136.247 0.583042L136.328 0.620633L136.555 0.612366C136.978 0.605004 137.402 0.597644 137.844 0.595018C138.459 0.611282 139.123 0.655042 139.771 0.722023C139.894 0.733753 140.061 0.773606 140.169 0.804809C140.277 0.836013 140.513 0.930142 140.686 0.991419C140.497 1.03615 140.288 1.07893 140.139 1.13035C140.124 1.13914 140.125 1.14961 140.143 1.16094C140.161 1.17226 140.195 1.18412 140.242 1.19556C140.288 1.20699 140.347 1.21769 140.413 1.22679C140.479 1.23589 140.55 1.24313 140.62 1.24795C140.758 1.25832 140.894 1.26523 141.023 1.2684C141.656 1.27387 142.263 1.26981 142.837 1.25624C143.046 1.23711 143.333 1.23529 143.652 1.25108C143.97 1.26687 144.303 1.29936 144.596 1.3434C145.347 1.31696 146.219 1.32477 147.153 1.36629C148.14 1.34104 149.333 1.3921 150.256 1.33678C150.235 1.3646 150.33 1.41249 150.463 1.44008C150.673 1.482 150.911 1.52084 151.166 1.55497L153.118 1.62161C153.191 1.65587 153.282 1.69056 153.39 1.72521C153.464 1.75259 153.593 1.77938 153.75 1.7999C153.907 1.82042 154.079 1.83306 154.23 1.83515C154.618 1.8453 154.943 1.8226 155.406 1.87869C154.693 1.93171 153.732 1.92467 152.693 1.85881C151.717 1.80872 150.778 1.78369 149.912 1.78464C149.626 1.78426 149.249 1.78719 149.16 1.81749C148.962 1.90312 148.444 1.88958 147.84 1.87379C147.366 1.8565 146.933 1.85844 146.576 1.87945C146.219 1.90046 145.95 1.93995 145.789 1.99466C145.748 2.04751 145.846 2.09262 146.262 2.12338L147.994 2.2467C148.249 2.23085 148.491 2.21208 148.719 2.19047C149.103 2.16178 149.578 2.1539 150.105 2.16746C150.633 2.18101 151.2 2.21563 151.762 2.26863C152.049 2.296 152.335 2.32337 152.544 2.31036C152.726 2.29542 152.894 2.27754 153.047 2.25684C153.078 2.24296 153.09 2.22699 153.083 2.20955C153.194 2.21766 153.304 2.22821 153.411 2.24083C154.266 2.38805 154.928 2.3855 155.53 2.34731C155.693 2.33596 155.816 2.31792 155.981 2.30379C156.146 2.28965 156.204 2.27131 156.354 2.27665C157.549 2.32493 157.894 2.16367 158.901 2.17014C158.95 2.16385 158.98 2.15443 158.989 2.14276C158.998 2.13109 158.986 2.11755 158.952 2.10338C158.881 2.09059 158.799 2.07959 158.713 2.07139C158.627 2.06319 158.54 2.05806 158.46 2.05646C157.997 2.03577 157.587 2.04211 157.302 2.07441C157.1 2.08761 156.886 2.09813 156.662 2.10591L155.653 1.87237C156.63 1.89378 157.554 1.89364 158.404 1.87196C158.59 1.85978 158.903 1.88076 159.164 1.88475L161.084 1.90657C161.479 1.90838 161.815 1.87177 162.366 1.95711C162.366 1.95711 162.729 1.97088 162.826 1.95922C162.923 1.94757 163.353 1.8751 163.609 1.82789C163.907 1.84135 164.319 1.87767 164.505 1.86549C164.828 1.83558 165.109 1.79724 165.341 1.75114L166.5 1.81694C166.499 1.87539 166.457 1.93038 166.374 1.98107C166.284 2.02995 166.287 2.08863 166.383 2.15231C166.479 2.21599 166.666 2.28285 166.928 2.34745L168.073 2.68955C168.26 2.71246 168.459 2.72788 168.644 2.73372C168.828 2.73956 168.989 2.73553 169.104 2.72219C169.597 2.68257 170.149 2.6516 170.641 2.61199C171.277 2.67259 171.114 2.77048 171.576 2.85635L173.072 2.99906C173.3 3.13131 173.533 3.258 172.839 3.30228C172.701 3.31002 172.794 3.36069 172.668 3.38152C173.207 3.48077 173.801 3.51048 174.348 3.57161C174.564 3.61557 174.744 3.66211 174.88 3.70897C175.03 3.77953 175.333 3.85161 175.725 3.90964C176.117 3.96767 176.565 4.007 176.974 4.01913C177.659 4.05628 178.361 4.11208 179.048 4.18403C179.282 4.20905 179.523 4.22728 179.754 4.23749C179.986 4.2477 180.202 4.24965 180.388 4.24322C181.053 4.23189 181.615 4.19293 182.039 4.12888C182.458 4.07453 183.022 4.04833 183.682 4.05266C184.809 4.16019 185.037 4.32222 185.719 4.46492L184.54 4.48092C184.497 4.53656 184.575 4.60671 184.092 4.60542C183.609 4.60414 183.854 4.65737 184.011 4.71113C184.066 4.73817 184.174 4.76599 184.316 4.78987C184.458 4.81375 184.626 4.83223 184.79 4.84218L185.794 4.91099C186.149 4.93718 186.494 4.94836 186.789 4.94331C187.084 4.93826 187.318 4.91717 187.466 4.88237C187.636 4.84931 187.87 4.82696 188.155 4.81666C188.517 4.7897 188.816 4.7496 189.038 4.69788L190.455 4.77324C190.515 4.72126 190.71 4.68482 191.006 4.67007C191.302 4.65532 191.681 4.66316 192.079 4.69228L193.034 4.73853C194.095 4.78899 194.328 4.77238 194.639 4.62585L193.366 4.36412C193.551 4.29518 193.73 4.23458 193.909 4.17398C193.591 4.08776 193.168 4.0062 192.682 3.93759C192.229 3.86388 191.762 3.79248 191.285 3.72368C190.766 3.65338 190.219 3.59225 189.576 3.51299C189.464 3.48735 189.301 3.44194 189.092 3.39818C188.884 3.35566 188.666 3.31397 188.44 3.27329C188.483 3.21766 188.522 3.16759 188.439 3.103C188.836 3.12361 189.245 3.15965 189.63 3.20788C190.016 3.25611 190.365 3.315 190.647 3.37925C190.695 3.39065 190.753 3.40135 190.818 3.41064C190.883 3.41993 190.953 3.42759 191.024 3.43309C191.72 3.47257 192.052 3.55505 192.393 3.65617C192.622 3.70787 192.917 3.75378 193.238 3.78753C193.853 3.84618 194.455 3.92152 195.043 3.98657C195.223 4.00824 195.41 4.02608 195.597 4.03935C196.211 4.08154 196.83 4.14054 197.421 4.21335C197.614 4.23185 197.799 4.25634 197.961 4.28476C198.123 4.31319 198.257 4.34472 198.351 4.37673C198.205 4.4118 198.126 4.45607 198.119 4.50687C198.094 4.54025 198.525 4.6083 198.729 4.65763C198.934 4.70695 198.533 4.68371 198.397 4.68867C197.84 4.69821 197.737 4.71821 198.07 4.82768C198.182 4.8621 198.256 4.89655 198.288 4.92887C198.32 4.96119 198.309 4.9907 198.256 5.01557C198.177 5.1185 197.936 5.203 197.77 5.30367C198.027 5.36999 198.457 5.44081 198.504 5.52291C198.526 5.54112 198.574 5.56042 198.643 5.57941C198.712 5.59839 198.801 5.61659 198.903 5.63269C199.173 5.66743 199.418 5.70899 199.62 5.75412C199.822 5.79926 199.975 5.84678 200.067 5.89299C200.097 5.9121 200.17 5.93237 200.271 5.94975C200.372 5.96713 200.493 5.98032 200.611 5.98668C200.752 5.99448 200.878 5.99345 200.963 5.9838C201.048 5.97414 201.086 5.9566 201.069 5.9348C201.073 5.89384 201.054 5.85114 201.013 5.80706C201.037 5.77646 201.061 5.74587 200.968 5.69519C201.388 5.71368 201.829 5.75075 202.243 5.80235C202.657 5.85396 203.029 5.91814 203.317 5.98791C203.635 6.06009 203.929 6.13588 204.282 6.22032C204.209 6.3149 204.209 6.31489 204.961 6.48211L208.947 6.56366L209.764 6.67442C210.526 6.77096 210.707 6.76435 211.185 6.71443L211.508 6.66751C212.184 6.73203 212.963 6.80632 213.386 6.68543C213.524 6.76423 213.613 6.79069 213.582 6.80265C213.38 6.91893 213.029 7.01759 212.543 7.09473C212.419 7.11277 212.332 7.14028 212.188 7.15637C211.722 7.24717 211.614 7.38749 211.886 7.5486C212.021 7.6199 212.216 7.69291 212.467 7.76529C212.1 7.86572 211.614 7.94893 211.022 8.0127C210.52 8.06203 210.106 8.12809 209.793 8.20899C209.512 8.29056 209.091 8.35187 208.554 8.38942C208.282 8.40538 208.083 8.43687 207.978 8.48076C207.946 8.59957 208.018 8.72678 208.192 8.85954C208.225 8.89994 208.318 8.94358 208.464 8.98703C208.61 9.03048 208.805 9.07257 209.034 9.10999C209.034 9.10999 209.144 9.13841 209.197 9.1554C209.241 9.29927 209.076 9.42607 208.712 9.52725C208.653 9.55597 208.531 9.5767 208.36 9.58724C208.189 9.59777 207.976 9.59769 207.742 9.58702C207.249 9.56987 206.789 9.56776 206.312 9.55813C205.798 9.54451 205.346 9.55524 205.002 9.5892C204.659 9.62316 204.436 9.67909 204.359 9.7511C204.354 9.77149 204.339 9.79101 204.314 9.80952C204.3 9.81906 204.292 9.8293 204.291 9.84012L205.385 10.0759L204.147 10.1698C204.074 10.2644 204.669 10.3211 204.967 10.3913L204.782 10.4305C204.545 10.4526 204.226 10.4102 203.937 10.3856L203.65 10.3583L203.616 10.4028C203.437 10.4634 202.785 10.3953 202.531 10.4397C202.277 10.4841 202.458 10.5343 202.839 10.5825C203.104 10.6184 203.388 10.647 203.671 10.6662C203.953 10.6854 204.227 10.6947 204.47 10.6933C204.616 10.6885 204.736 10.6777 204.825 10.6614C205.339 10.5921 205.907 10.5325 206.524 10.4831C206.998 10.4387 207.591 10.4199 208.261 10.4278C208.458 10.4245 208.695 10.435 208.932 10.4575C209.168 10.48 209.388 10.5131 209.553 10.551L209.9 10.5572C209.9 10.5572 210.09 10.5962 210.063 10.6026C209.931 10.7182 210.085 10.8596 210.501 11.0057L210.139 11.0189C209.621 11.0054 209.949 11.0934 209.872 11.1368C209.504 11.1286 209.026 11.092 208.852 11.147L208.591 11.143L208.693 11.1528L208.817 11.1348L209.304 11.217C209.074 11.2309 208.906 11.2478 208.703 11.2552C208.59 11.2617 208.501 11.2731 208.439 11.2888C208.378 11.3045 208.346 11.3242 208.346 11.3466C208.347 11.3811 208.286 11.4102 208.17 11.431C208.054 11.4518 207.886 11.4637 207.683 11.4655C207.44 11.4662 207.301 11.5037 207.159 11.517L207.777 11.7432C207.777 11.7432 207.469 11.7139 207.637 11.7537L207.658 11.7259L208.033 11.7825C208.303 11.8322 208.491 11.8442 208.651 11.8086C208.81 11.7731 208.774 11.8204 208.85 11.8068C208.823 11.8429 208.649 11.8682 208.5 11.8898C208.328 11.9068 208.134 11.9194 207.921 11.9272C208.305 12.0862 208.324 12.0909 207.763 12.133C207.202 12.1751 207.396 12.2384 206.927 12.2474C206.458 12.2564 206.991 12.364 207.305 12.385C207.538 12.3988 207.775 12.4203 208.001 12.448C208.226 12.4757 208.435 12.5089 208.612 12.5454L208.518 12.6678C208.38 12.6577 208.241 12.6445 208.108 12.6287C207.653 12.5615 207.24 12.4982 206.836 12.5373L207.028 12.6303L205.617 12.5764C205.654 12.6461 205.869 12.7255 206.217 12.7978C206.165 12.8375 206.132 12.8794 206.121 12.923C206.097 12.9536 205.958 12.9343 205.867 12.9376C205.544 12.9427 205.279 12.9635 205.095 12.998C204.911 13.0325 204.814 13.0798 204.813 13.1357C204.776 13.1829 205.273 13.2811 205.584 13.2778C206.359 13.2873 207.197 13.3237 208.054 13.385C208.576 13.393 208.649 13.2686 209.508 13.3535C209.525 13.4109 209.415 13.4574 209.195 13.486C208.974 13.5145 208.655 13.5235 208.286 13.5117C208.496 13.6392 209.659 13.6725 209.71 13.8058C209.421 13.7963 209.111 13.7742 208.812 13.7415C208.513 13.7088 208.235 13.6667 208.005 13.6193C207.956 13.6076 207.894 13.5968 207.824 13.588C207.755 13.5791 207.681 13.5725 207.61 13.5686C207.538 13.5648 207.471 13.5638 207.415 13.5659C207.358 13.568 207.314 13.5731 207.287 13.5806C207.448 13.6288 207.625 13.6845 207.827 13.7366C208.029 13.7887 208.078 13.8113 208.223 13.8222C209.31 13.9258 209.826 14.1124 210.766 14.2349C211.012 14.2584 211.043 14.333 210.829 14.3245C210.626 14.3161 210.442 14.3172 210.298 14.3277C210.154 14.3382 210.055 14.3577 210.013 14.3841C209.856 14.4148 209.659 14.4392 209.429 14.4568C210.393 14.6483 211.543 14.8175 212.77 14.9485C213.002 14.9744 213.244 14.9902 213.461 14.9936C214.146 14.9937 214.873 15.0089 215.627 15.0388C215.894 15.047 216.141 15.0462 216.355 15.0366C217.054 15.0137 217.61 15.0638 218.118 15.2047L218.958 15.4282C218.93 15.4643 218.789 15.5046 218.68 15.56L219.337 15.6793L224.345 15.4045L225.351 15.6706L226.792 15.6558C226.903 15.6635 227.014 15.6741 227.12 15.6871C227.412 15.7656 227.64 15.8411 227.956 15.9161C228.273 15.991 228.838 16.0001 229.232 16.0885C229.626 16.1768 230.021 16.1786 230.508 16.2311C230.554 16.2995 230.507 16.3611 230.369 16.4119C230.324 16.4704 230.076 16.5064 230.034 16.5621C230.038 16.6183 229.946 16.6661 229.766 16.701C229.585 16.7359 229.322 16.7569 229 16.7621C228.097 16.8818 227.009 16.967 225.768 17.0152C225.659 17.0187 225.569 17.0268 225.502 17.039C225.436 17.0512 225.396 17.0672 225.383 17.0861C225.385 17.1406 225.302 17.1878 225.141 17.2241C224.98 17.2604 224.744 17.2849 224.452 17.2958C224.374 17.298 224.315 17.3049 224.283 17.3155C224.172 17.3224 224.091 17.3355 224.048 17.3537C224.005 17.3719 224.002 17.3944 224.038 17.4192C224.074 17.444 224.149 17.4701 224.255 17.4951C224.361 17.5201 224.495 17.5431 224.643 17.5619C224.859 17.5922 225.079 17.6211 225.303 17.6487C225.29 17.6654 225.068 17.6681 225.1 17.6831C225.188 17.7311 225.208 17.7761 225.159 17.8144C225.111 17.8528 224.994 17.8835 224.82 17.9042L226.017 18.2931C226.743 18.3469 227.456 18.4383 228.02 18.5498C228.02 18.568 227.988 18.5833 227.926 18.5942C227.863 18.605 227.773 18.6109 227.664 18.6114C227.372 18.6194 227.096 18.6349 226.781 18.6437C226.589 18.6502 226.429 18.6647 226.31 18.6862C226.191 18.7077 226.117 18.7358 226.091 18.7689L226.793 18.9136C226.568 18.9488 226.401 18.9657 226.253 18.9874C226.337 19.0329 226.482 19.0799 226.676 19.1248C226.87 19.1698 227.109 19.2114 227.373 19.2466C227.444 19.2538 227.517 19.2591 227.586 19.2621C227.655 19.2652 227.721 19.2659 227.778 19.2642C228.322 19.2146 228.959 19.3022 229.577 19.3851C230.196 19.4679 230.531 19.5179 230.988 19.5823L231.861 19.591C232.082 19.6215 232.28 19.6573 232.437 19.6957C232.595 19.7341 232.709 19.7739 232.769 19.8119C232.722 19.8731 232.308 19.8396 232.061 19.8459C231.475 19.884 230.705 19.8759 229.878 19.8229C229.673 19.8033 229.463 19.8191 229.264 19.821C228.833 19.8286 228.42 19.841 228.025 19.8581C227.765 19.8741 227.522 19.8938 227.297 19.9171C227.237 19.995 228.181 20.0552 227.646 20.0937C227.83 20.1113 227.899 20.1358 227.994 20.1269C228.602 20.1775 229.201 20.2025 229.721 20.199C230.72 20.1883 231.854 20.2238 233.03 20.3026C234.3 20.3843 235.518 20.4185 236.584 20.4026C236.99 20.4017 237.443 20.4184 237.91 20.4515C238.462 20.4974 239.009 20.5262 239.518 20.5361C239.686 20.5365 239.873 20.5443 240.065 20.5589C240.256 20.5735 240.446 20.5945 240.619 20.6203C240.604 20.6397 240.439 20.6539 240.476 20.6633C241.002 20.8091 241.215 20.9608 242.025 21.1096C242.578 21.1624 243.214 21.223 243.576 21.153C243.938 21.0831 243.808 21.0229 243.088 20.8437C243.244 20.8412 243.432 20.8495 243.62 20.8674C243.807 20.8853 243.982 20.9115 244.113 20.9415L244.736 21.0755L245.297 21.2037C245.248 21.2677 245.209 21.3178 245.169 21.3706C245.104 21.4268 245.175 21.4951 245.37 21.5661C245.488 21.6048 245.591 21.6435 245.677 21.6819C246.028 21.8355 246.13 21.9806 245.971 22.1011C245.666 22.2743 245.241 22.4336 244.702 22.5773C244.132 22.717 243.821 22.8933 243.351 23.0457C243.112 23.115 242.821 23.1772 242.482 23.2315C241.839 23.3523 241.135 23.4673 240.489 23.5909C239.844 23.7144 239.115 23.8032 238.399 23.9051C237.332 24.026 236.179 24.1304 234.946 24.2177C234.183 24.2943 233.399 24.3688 232.693 24.4568C231.86 24.5559 230.88 24.6271 229.78 24.6686C228.807 24.7183 227.939 24.7917 227.19 24.8875C227.112 24.8979 227.05 24.9111 227.006 24.9267C226.872 25.0244 226.494 25.0933 225.931 25.1228C225.965 25.1514 226.009 25.1805 226.062 25.2099C226.14 25.245 226.157 25.2778 226.109 25.3042C226.061 25.3305 225.952 25.3491 225.795 25.3576C225.344 25.3818 224.97 25.4229 224.689 25.4791C224.585 25.4931 224.521 25.5137 224.502 25.5389C224.483 25.5641 224.508 25.5932 224.577 25.6237C224.639 25.6551 224.643 25.684 224.59 25.7067C224.538 25.7293 224.43 25.7447 224.282 25.7508C223.901 25.7805 223.493 25.8044 223.06 25.8224C222.14 25.862 221.07 25.8615 219.915 25.821C219.792 25.8093 219.668 25.8273 219.524 25.8136C218.707 25.7682 217.948 25.7612 217.339 25.7934C216.626 25.8059 215.879 25.8034 215.127 25.8093C214.039 25.8054 213.036 25.8293 212.145 25.8803C211.127 25.831 210.555 25.9168 209.695 25.9184C208.902 25.9272 208.15 25.9483 207.446 25.9816C206.312 26.0257 205.182 26.0643 204.064 26.1159C203.015 26.1405 202.05 26.1876 201.184 26.2562C200.852 26.2873 200.251 26.2389 200.025 26.304C199.799 26.369 199.342 26.3613 198.974 26.3829L197.81 26.4362C197.61 26.4489 197.39 26.4569 197.154 26.4602C196.072 26.4645 195.323 26.5514 194.319 26.5691L194.217 26.5593C192.434 26.6884 190.395 26.7592 188.158 26.7698C186.851 26.8094 185.422 26.8075 184.035 26.8365C183.705 26.8945 182.923 26.823 182.509 26.876C182.094 26.929 181.416 26.8943 180.881 26.903C180.347 26.9117 179.824 26.9335 179.252 26.9327C178.756 26.933 178.337 26.9566 178.033 27.0016C177.34 27.0759 176.494 27.1195 175.535 27.1306C174.266 27.1499 173.066 27.1938 171.775 27.1841C171.794 27.2383 171.714 27.2843 171.546 27.3176C171.377 27.3508 171.125 27.37 170.815 27.3733C169.435 27.3939 168.183 27.4477 166.785 27.4637L166.411 27.4638L162.228 27.4949C161.101 27.5009 160.015 27.5108 158.866 27.5176C158.435 27.4766 158.425 27.5473 158.127 27.5338C158.044 27.499 157.946 27.4836 157.799 27.5025L157.767 27.5442L152.993 27.5996C151.124 27.6401 149.158 27.6522 147.112 27.6359C146.627 27.64 146.173 27.6538 145.76 27.6772C145.377 27.6857 144.977 27.6895 144.563 27.6884C144.003 27.6779 143.457 27.6726 142.925 27.6725C141.526 27.6885 140.059 27.6799 138.527 27.6682C136.996 27.6565 135.836 27.6773 134.473 27.6757C133.55 27.6742 132.631 27.6672 131.675 27.6508C131.219 27.6431 130.657 27.6014 130.185 27.5862C129.712 27.571 129.558 27.5713 129.495 27.5952C129.29 27.6622 128.773 27.6188 128.36 27.6123C127.554 27.6012 127.44 27.5783 127.221 27.4052L128.21 27.3501C128.452 27.3324 128.757 27.3293 129.094 27.3411C129.432 27.3529 129.792 27.3792 130.138 27.4176C130.275 27.434 130.417 27.447 130.558 27.4558C130.698 27.4646 130.834 27.469 130.957 27.4688C131.954 27.4594 132.938 27.4397 133.896 27.4237L134.037 27.4131L134.045 27.2587C133.919 27.2435 133.787 27.231 133.656 27.2216L128.848 27.1214C127.745 27.0968 126.599 27.0413 125.516 27.0186C124.433 26.996 123.85 26.9821 123.01 26.9587C122.655 26.9454 122.294 26.9279 121.928 26.9063C121.949 26.8915 121.961 26.8756 121.964 26.859C121.984 26.834 122.009 26.8006 121.854 26.7738C121.684 26.7361 121.458 26.7038 121.219 26.6835C120.995 26.67 120.778 26.6625 120.576 26.661C119.601 26.648 118.488 26.5665 117.473 26.4337L117.118 26.5223C115.594 26.4725 114.048 26.4235 112.456 26.3762C112.137 26.3633 111.802 26.3386 111.477 26.3038C111.129 26.2706 110.808 26.2012 110.441 26.1632C110.079 26.1359 109.719 26.1146 109.368 26.0997C109.463 26.0769 109.588 26.0586 109.74 26.0456C109.889 26.041 109.997 26.0267 110.05 26.0049C110.102 25.983 110.096 25.9547 110.031 25.9241C109.918 25.8714 109.868 25.8219 110.115 25.8156C110.343 25.8036 110.506 25.7776 110.585 25.7407C110.664 25.7038 110.656 25.6575 110.561 25.6073C110.519 25.578 110.49 25.5492 110.473 25.5213L110.371 25.5115C110.033 25.4076 109.357 25.3701 108.873 25.2851C108.644 25.2604 108.407 25.2462 108.199 25.2447C107.663 25.2265 107.141 25.2185 106.587 25.1955C106.322 25.1849 106.045 25.1656 105.773 25.1387C105.383 25.1016 105.342 25.0977 105.116 24.9626C105.467 24.965 105.746 24.9448 105.904 24.9055C106.063 24.8662 106.092 24.8102 105.986 24.747C105.696 24.6089 105.39 24.4633 104.079 24.3651C104.507 24.3603 104.918 24.3507 105.312 24.3363C105.426 24.3333 105.512 24.3231 105.558 24.3073C105.603 24.2914 105.606 24.2706 105.566 24.2477C105.527 24.2247 105.446 24.2007 105.335 24.1788C105.224 24.157 105.089 24.1383 104.946 24.1253C104.254 24.0472 103.533 23.9949 102.862 23.9743C102.297 23.9652 101.787 23.9703 101.127 23.9701L100.348 23.8958C100.361 23.8791 100.246 23.8562 100.275 23.8471C100.473 23.7614 100.692 23.6778 100.916 23.5857C100.557 23.536 100.246 23.4761 100.019 23.4126C99.7912 23.3492 99.6565 23.2849 99.6302 23.2272C99.6108 23.2097 99.6158 23.1938 99.645 23.1806C99.6742 23.1674 99.7268 23.1572 99.799 23.1507C100.004 23.1395 100.162 23.1182 100.262 23.0883C100.361 23.0584 100.399 23.0208 100.372 22.9784L99.7659 22.8221C97.9419 22.7105 96.1507 22.6309 94.4256 22.5845L92.8682 22.5494C92.6803 22.5076 92.7384 22.4893 92.9153 22.4882C93.0921 22.4872 93.5893 22.4988 93.9366 22.505C94.2365 22.5132 94.5029 22.5078 94.7098 22.4894C94.9168 22.4709 95.0573 22.44 95.1179 22.3997L94.595 22.2214C94.6207 22.1881 94.657 22.1408 94.9407 22.1439C95.1345 22.1401 95.2773 22.1233 95.346 22.0962C95.4147 22.0692 95.4054 22.0335 95.3195 21.9949C95.3064 21.967 95.326 21.9416 95.3773 21.9198C95.7968 21.918 96.2141 21.919 96.5947 21.9105C96.772 21.9077 96.9216 21.8973 97.0335 21.8802C97.1455 21.8631 97.2171 21.8395 97.2433 21.8111C97.257 21.7834 97.2236 21.7519 97.1456 21.719C97.0677 21.6862 96.9475 21.653 96.7947 21.622C96.1982 21.5838 95.6525 21.5833 95.2774 21.6207C95.1437 21.65 94.9289 21.666 94.6613 21.6666C94.3937 21.6672 94.0859 21.6523 93.7785 21.624C93.4265 21.5914 93.0752 21.577 92.7878 21.5836C92.5005 21.5901 92.2959 21.6171 92.2108 21.6596C91.8494 21.6431 91.5291 21.6305 91.213 21.6123C90.8402 21.5893 90.4878 21.5825 90.1938 21.5927C89.7236 21.5999 89.2169 21.5957 88.6851 21.5802C87.1525 21.5415 85.6178 21.5057 84.1339 21.4896C83.7413 21.485 83.4017 21.4974 83.0134 21.4872C82.6251 21.4771 82.318 21.5045 81.8324 21.4492C81.7399 21.4406 81.6468 21.4351 81.5605 21.4331C81.4743 21.4311 81.3971 21.4326 81.3352 21.4376C80.4825 21.4813 79.4827 21.4875 78.3946 21.4558C76.9042 21.448 75.3588 21.4261 73.8663 21.4211C73.4286 21.4254 73.0149 21.4369 72.6296 21.4554C72.3364 21.4667 72.0293 21.4743 71.7099 21.4782C71.4651 21.4817 71.231 21.4714 71.2723 21.532C71.3136 21.5927 70.9468 21.5547 70.7354 21.5435C70.009 21.5141 69.2666 21.4743 68.5165 21.4245C67.7774 21.3704 67.0532 21.3389 66.3873 21.3319C65.9063 21.3278 65.4104 21.3432 64.792 21.2604C64.8155 21.2298 64.8391 21.1992 64.9737 21.1672C64.4694 21.0793 63.894 21.0037 63.2951 20.9466C62.6962 20.8894 62.0911 20.8525 61.5297 20.8388L60.7555 20.6724C60.5649 20.6529 60.3703 20.6386 60.1836 20.6306C59.9969 20.6225 59.8219 20.6208 59.6693 20.6255C59.5514 20.628 59.4077 20.6218 59.2646 20.6081C59.1215 20.5945 58.9886 20.5743 58.8903 20.5513C58.7433 20.522 58.5638 20.4967 58.3742 20.4786C58.1845 20.4605 57.9933 20.4504 57.8243 20.4496C57.2924 20.4315 56.7246 20.3897 56.1791 20.3285C56.0375 20.2927 55.9488 20.2556 55.9239 20.2219C55.899 20.1882 55.9391 20.1594 56.039 20.139C56.2001 20.1029 56.2906 20.057 56.305 20.004C56.3193 19.9509 56.2572 19.8919 56.1224 19.8304C56.0534 19.7927 56.0303 19.757 56.0546 19.7254C56.0789 19.6939 56.1501 19.6671 56.2637 19.6468C56.6881 19.5529 56.5746 19.5003 55.8803 19.3445C55.7675 19.3185 55.6316 19.2943 55.4811 19.2732C55.3306 19.2522 55.1689 19.2349 55.0061 19.2223C54.6243 19.1969 54.2477 19.1781 53.8832 19.166C53.6782 19.1465 53.468 19.1622 53.2318 19.1546C52.0508 19.1167 51.8779 19.0554 51.4954 18.9234L51.2166 18.8281C50.6997 18.7509 50.1343 18.6868 49.5611 18.6405C48.988 18.5941 48.4215 18.5665 47.9024 18.5598C47.6961 18.5593 47.4588 18.5461 47.2271 18.5223C46.473 18.4494 45.7092 18.3989 44.9865 18.3743C44.5361 18.3604 44.0506 18.3245 43.5884 18.2709C43.1261 18.2173 42.7067 18.1482 42.3805 18.072C42.0875 18.0034 41.7042 17.9418 41.2839 17.8958C40.7919 17.8489 40.7463 17.7937 41.0211 17.7513C41.2958 17.7088 41.756 17.6541 42.1644 17.6095C42.3065 17.5943 42.3946 17.5696 42.4188 17.5382C42.443 17.5068 42.4024 17.4698 42.3015 17.4315C42.2367 17.3658 42.2254 17.3035 42.268 17.2461C42.2908 17.2223 42.2751 17.1949 42.2219 17.1659C42.1688 17.1369 42.0794 17.1069 41.9599 17.0779C41.8404 17.049 41.6935 17.0218 41.529 16.9981C41.3646 16.9744 41.1865 16.9549 41.0068 16.9407C40.2483 16.8684 39.5103 16.798 38.7368 16.7451C38.4126 16.7202 38.0888 16.6893 37.7733 16.6532C37.1274 16.564 36.4364 16.49 35.7404 16.4355C35.4101 16.4111 35.0871 16.3685 34.8415 16.3169C34.0666 16.1779 33.3526 16.0317 32.7124 15.881C32.5581 15.8342 32.3562 15.7886 32.1194 15.747C31.8826 15.7054 31.6159 15.6687 31.3361 15.6392C31.1106 15.6177 30.9271 15.5704 30.7533 15.5389C30.627 15.4659 30.6135 15.3984 30.7141 15.3427C30.8147 15.287 31.0261 15.245 31.3284 15.2205C31.6151 15.1911 31.8834 15.1569 32.1312 15.1209C32.4299 15.0917 32.7851 15.0742 33.1834 15.0689C33.6552 15.0533 34.0041 15.0085 34.1845 14.9404C32.893 14.8173 31.6649 14.6404 30.5328 14.6818L29.6726 14.5699C29.7069 14.5254 29.7369 14.4864 29.7647 14.4503C29.9693 14.3844 30.0332 14.3014 29.951 14.2082C29.8832 14.1632 29.8894 14.1222 29.9687 14.0894C30.048 14.0565 30.1978 14.0331 30.4029 14.0214C31.6175 13.9014 33.0222 13.8203 34.1613 13.6841C34.5184 13.6585 34.9365 13.6469 35.3979 13.6498C35.8443 13.6416 35.8257 13.5801 35.3119 13.5042C35.0236 13.4646 34.7297 13.4266 34.4313 13.3904C33.1157 13.3843 32.5797 13.5661 31.0783 13.5155L30.3825 13.276C30.1943 13.2723 30.0116 13.2708 29.8357 13.2716L27.3183 13.3689C27.1086 13.3738 26.9454 13.3905 26.8472 13.417C26.749 13.4435 26.7197 13.4789 26.7627 13.519C26.7797 13.5681 26.745 13.6132 26.6599 13.6525C26.605 13.6801 26.6401 13.7167 26.7576 13.7544C27.0222 13.8394 26.6826 13.8518 26.4682 13.8731C26.4133 13.8752 26.3501 13.875 26.2822 13.8725C26.2142 13.8699 26.1429 13.8652 26.0724 13.8585C26.0018 13.8517 25.9334 13.8432 25.8711 13.8333C25.8089 13.8234 25.754 13.8123 25.7097 13.8008C25.3318 13.72 25.0013 13.6347 24.6298 13.5455C24.8935 13.4602 24.5833 13.3201 24.9948 13.2429C25.0408 13.2275 25.0592 13.2087 25.0489 13.1877C25.0386 13.1667 24.9997 13.1439 24.9347 13.1207C24.7672 13.061 24.6874 13.0027 24.7034 12.9518C24.7194 12.9009 24.8306 12.8592 25.0259 12.8308L25.0494 12.8002C24.5344 12.6974 24.6709 12.6059 24.4686 12.497L23.9732 12.4259C22.7408 12.2546 22.7386 12.2574 21.6775 12.2637C21.4637 12.1985 21.7354 12.1886 21.9392 12.1811L23.6458 12.108C24.7617 12.0591 25.9099 12.0253 27.1564 12.0068C28.4029 11.9884 29.7926 11.9268 31.081 11.8825C31.1461 11.879 31.196 11.8722 31.2263 11.8627C31.2566 11.8531 31.2666 11.841 31.2554 11.8274C31.2042 11.8127 31.1371 11.7986 31.0592 11.786C30.9813 11.7734 30.8945 11.7627 30.8053 11.7546C30.3953 11.7155 29.9746 11.6903 29.5377 11.6576L28.7231 11.6009L28.4726 11.5262C28.3095 11.4808 28.1981 11.4254 27.9811 11.3927C27.8023 11.3684 27.6083 11.3499 27.4191 11.3392C27.23 11.3286 27.0527 11.326 26.9057 11.332C26.4981 11.3469 26.1294 11.3684 25.7403 11.3881C25.3511 11.4077 25.1366 11.429 24.7991 11.4386C24.1134 11.443 23.4508 11.4546 22.8141 11.4733C22.2777 11.5175 21.7816 11.57 21.329 11.6302C21.0466 11.6541 20.7825 11.6826 20.3003 11.6516C20.0715 11.6234 19.8742 11.5864 19.7433 11.5472C19.6124 11.5079 19.5564 11.4689 19.5852 11.4371C19.611 11.4121 19.6843 11.3924 19.798 11.3797C19.9117 11.3671 20.0621 11.3619 20.235 11.3647C20.719 11.3601 21.1666 11.3447 21.5688 11.3187C22.1285 11.2716 22.8098 11.2513 23.5731 11.259C23.8319 11.2658 24.0054 11.2405 24.2318 11.2323C24.4582 11.224 24.6501 11.2035 24.9025 11.2186C25.6867 11.2575 26.0627 11.1978 26.5326 11.1591C26.6917 11.1419 26.7903 11.1141 26.8175 11.0787C26.8447 11.0434 26.7995 11.0019 26.6868 10.9588C26.4699 10.8729 26.2046 10.7866 25.8949 10.7011C25.7356 10.6591 25.5314 10.6192 25.2985 10.5845C25.0655 10.5499 24.8101 10.5214 24.5523 10.5014C24.398 10.4488 24.3157 10.3971 24.3128 10.351C24.3099 10.3048 24.3865 10.2656 24.5357 10.2371C24.916 10.1718 25.2532 10.1054 26.1053 10.1419C26.5059 10.1558 26.883 10.1585 27.2214 10.1498C27.9722 10.1379 28.8381 10.1639 29.7377 10.2255C29.9705 10.2413 30.1992 10.2521 30.4173 10.2575C31.9725 10.2953 33.4543 10.3142 34.9403 10.3275C35.7276 10.3339 36.5213 10.332 37.3431 10.3507C39.2704 10.3911 41.0248 10.3703 42.885 10.3835C43.8593 10.3903 44.7314 10.363 45.4555 10.3032C45.5965 10.2831 45.7176 10.2597 45.8174 10.2332C45.3375 10.1636 44.8105 10.1086 44.2867 10.0732C43.7629 10.0379 43.2599 10.0235 42.8259 10.0315C42.5874 10.051 42.279 10.0545 41.9352 10.0418C41.5914 10.029 41.2258 10.0005 40.879 9.95929L41.8872 9.936C42.5557 9.9251 43.2405 9.92173 43.8907 9.9061C44.9236 9.87919 45.8809 9.83612 46.9506 9.81869C47.8141 9.80266 48.5869 9.76169 49.2446 9.69707C49.7198 9.64993 50.2625 9.61651 50.8617 9.59747C51.2876 9.58733 51.2876 9.58733 51.5599 9.49087C51.3438 9.42847 51.0645 9.41974 50.8014 9.41854C49.2238 9.37928 47.7226 9.37239 46.3281 9.39803C45.6246 9.4003 45.0004 9.42676 44.4856 9.47613C44.3596 9.49695 44.0371 9.4871 43.7782 9.48033C42.9668 9.47004 42.1912 9.47302 41.4609 9.48925C40.4511 9.51631 39.3265 9.50989 38.1307 9.47026C37.904 9.42176 38.165 9.42575 38.1778 9.40906C39.104 9.37794 40.0118 9.34209 40.9563 9.31572C41.2145 9.30632 41.4905 9.30166 41.7812 9.30182C42.8664 9.31817 43.7707 9.27286 44.3675 9.17223C44.3974 9.13329 44.79 9.13788 44.9635 9.11262C45.0488 9.09076 45.1056 9.06501 45.1323 9.03615C44.8796 8.96428 44.5938 8.9639 44.3738 8.96382C43.7355 8.97184 43.1213 8.98705 42.5344 9.00937C41.9888 9.0306 41.3849 9.03628 40.739 9.02625C40.2623 9.01663 39.8547 9.03151 39.3738 9.02744C39.1129 9.01889 38.8428 9.00515 38.5691 8.98653C38.8739 8.93643 39.2881 8.90562 39.7828 8.89625C40.1579 8.86634 40.627 8.85732 40.6869 8.77943C40.5098 8.72371 40.3124 8.72281 40.1539 8.7286C39.824 8.72838 39.5054 8.73189 39.1996 8.73911C38.5513 8.75495 37.8494 8.75516 37.1086 8.73976C36.7186 8.734 36.3484 8.73574 36.0044 8.74493C35.2248 8.75718 34.4777 8.78446 33.7638 8.79701C32.3016 8.80985 30.968 8.85585 29.563 8.88012C29.2503 8.88613 28.97 8.90717 28.5579 8.87086C28.1457 8.83454 28.1274 8.8298 28.0787 8.80724C27.9634 8.76962 27.9285 8.73313 27.9811 8.70537C28.0629 8.67945 28.2221 8.665 28.4305 8.66462C29.6865 8.62337 30.8778 8.56543 31.9969 8.49115C32.4894 8.47627 32.9209 8.44593 33.2764 8.40116C33.5583 8.37034 33.8927 8.34993 34.2692 8.34058C34.8167 8.31829 35.3875 8.30196 35.9792 8.29165C36.2546 8.28612 36.4887 8.2696 36.6678 8.2431C36.8469 8.21659 36.9674 8.18062 37.0222 8.13731L36.2968 7.99348C36.1828 7.98678 36.0697 7.98098 35.9581 7.97611L29.937 8.07971L29.3407 8.08256C28.6871 8.07398 28.5274 8.05278 27.9075 7.88617C29.3223 7.84696 30.4345 7.73271 31.1332 7.5548C30.9653 7.53566 30.7931 7.51924 30.6207 7.50592C29.4901 7.46384 28.4213 7.45265 27.4555 7.4728C26.8818 7.47482 26.2919 7.46933 25.6999 7.46662C25.873 7.38459 26.5363 7.40903 26.9687 7.39054C28.0016 7.3616 28.9151 7.30184 29.6798 7.21314C29.9435 7.17856 30.2733 7.15645 30.6542 7.14782C31.0355 7.14485 31.3539 7.12391 31.5819 7.08685C31.8099 7.04978 31.9404 6.9977 31.9622 6.93513C31.9981 6.87849 32.0755 6.82585 32.1932 6.77801C31.9849 6.71012 31.6543 6.64511 31.2633 6.59518C30.8723 6.54524 30.4478 6.51382 30.0694 6.50679C29.2618 6.47884 28.4241 6.43308 27.5776 6.37068C27.156 6.33921 26.7425 6.32114 26.3641 6.31766C26.0305 6.31498 25.6511 6.29225 25.2841 6.25294C24.9171 6.21362 24.5824 6.15988 24.3313 6.09991C23.9922 6.02577 23.6758 5.9508 23.3594 5.87584C23.043 5.80088 22.6759 5.70615 22.3066 5.61419C21.981 5.59981 21.6639 5.59057 21.3596 5.58659C21.1229 5.58996 20.8467 5.57993 20.5636 5.5577C20.2805 5.53546 20.0023 5.50194 19.7618 5.46109C19.9028 5.42079 20.0623 5.38523 20.2302 5.33854C19.9997 5.27689 19.8325 5.21402 19.7389 5.15376C19.6453 5.0935 19.6273 5.03711 19.6858 4.98803C19.7201 4.94352 19.4695 4.86886 19.3829 4.80984C19.2714 4.75896 19.2505 4.71148 19.3228 4.67362C19.3951 4.63576 19.5574 4.60929 19.7883 4.59768C20.0746 4.57625 20.3077 4.54399 20.4779 4.5022C20.5342 4.49136 20.5628 4.4765 20.5612 4.459C20.5596 4.44149 20.5278 4.4219 20.4687 4.402C20.4096 4.38211 20.3251 4.36255 20.2229 4.34512C20.1207 4.32768 20.004 4.31293 19.8837 4.30221C19.5149 4.27181 19.1487 4.2521 18.806 4.24422C18.2157 4.22973 17.6506 4.22063 17.1107 4.21692C16.5135 4.21132 15.8492 4.17682 15.1852 4.1169C14.5907 4.0602 14.0577 4.00937 13.767 3.90102C13.4763 3.79268 13.0115 3.79613 12.6541 3.71726C12.8549 3.64616 13.2117 3.59677 13.6886 3.57405C14.0007 3.56594 14.2611 3.54466 14.4533 3.51157C14.6456 3.47848 14.7652 3.43431 14.8047 3.3819L13.7197 3.16197C12.8532 3.05843 12.3738 3.13812 11.4375 3.09661L12.4022 3.01542C12.4216 3.0074 12.4288 2.99797 12.4236 2.9876C12.3299 2.8234 12.1809 2.78829 11.1948 2.69723L10.6413 2.64444L9.76527 2.5818C9.62497 2.54815 9.52795 2.51306 9.48386 2.48003C9.43977 2.44701 9.45017 2.41721 9.51405 2.39362C9.64239 2.35394 9.68141 2.30324 9.62753 2.24618C9.54256 2.20838 9.53555 2.17354 9.6077 2.1477C9.67985 2.12185 9.8266 2.10663 10.0225 2.10469C10.1788 2.10168 10.1905 2.058 10.2755 2.03327C10.36 1.99917 10.5047 1.97302 10.6996 1.95657C10.8945 1.94012 11.1351 1.93376 11.4051 1.93794C12.201 1.94136 12.9487 1.92856 13.6349 1.89978L13.5119 1.88805C14.2272 1.91331 14.8958 1.91638 15.4854 1.89709C16.0762 1.87282 16.8344 1.88839 17.4619 1.87358C17.9728 1.87698 18.3618 1.84338 18.5462 1.77992C18.7249 1.71932 19.3742 1.73346 19.8714 1.74505C20.1659 1.75254 20.4505 1.75572 20.7223 1.75454C21.087 1.74082 21.5431 1.75375 22.0144 1.79117C22.1558 1.80267 22.2951 1.80875 22.4189 1.80884C23.617 1.82457 24.813 1.84307 25.995 1.85128C26.2678 1.84655 26.5877 1.85738 26.9171 1.88249C27.0556 1.89339 27.1904 1.89791 27.3033 1.89543C29.1709 1.87049 31.2784 1.93412 33.1093 1.89971C33.3312 1.89158 33.5769 1.88989 33.8393 1.89469C34.4292 1.9149 34.9413 1.90189 35.2982 1.85763C35.4907 1.8341 35.7375 1.82113 36.0228 1.81955C36.3082 1.81797 36.6259 1.82783 36.9556 1.84848C37.5042 1.87583 38.0113 1.8788 38.4232 1.85707C39.2265 1.83699 40.0713 1.82874 40.9508 1.83237C41.2203 1.83588 41.4572 1.82808 41.6432 1.80956C41.8292 1.79105 41.9592 1.76233 42.0232 1.72561C41.8072 1.66321 41.571 1.65561 41.3467 1.6611C40.4775 1.64688 39.6103 1.62988 38.7573 1.62318C37.9938 1.60403 37.2612 1.59818 36.5703 1.60571C36.2272 1.6142 35.7991 1.59484 35.3795 1.55186C34.8651 1.49743 34.3354 1.47039 33.8973 1.47621C33.5726 1.47765 33.2297 1.47296 32.8739 1.46221C32.6461 1.44924 32.4126 1.42698 32.1974 1.3977C32.112 1.38498 32.019 1.37429 31.9245 1.3663C31.8299 1.35832 31.7359 1.35322 31.6483 1.35133C31.5607 1.34944 31.4815 1.3508 31.4158 1.35533C31.3501 1.35985 31.2993 1.36744 31.2667 1.37761C30.9371 1.46264 30.2004 1.41925 29.5695 1.40985C28.624 1.26593 27.9203 1.35111 27.0367 1.26983C26.9668 1.26444 26.8979 1.26117 26.8343 1.26024C26.7707 1.25931 26.7137 1.26073 26.6667 1.26441C24.9567 1.31333 22.9637 1.27256 21.1683 1.28945C20.9703 1.29192 20.7404 1.28346 20.505 1.26501C18.9658 1.14294 17.486 1.10828 16.3548 1.16782C16.2172 1.17318 16.0606 1.17341 15.8922 1.1685C15.1188 1.11998 14.3792 1.10064 13.7351 1.11208C12.7258 1.10839 11.7552 1.11138 10.7297 1.10017C10.0227 1.08421 9.40247 1.10126 8.93117 1.14961C8.91618 1.16909 8.60223 1.1481 8.36175 1.14607C8.22344 1.09705 8.10353 1.05277 7.96094 1.00931C7.83347 0.955548 7.64253 0.901138 7.40111 0.849781C7.1597 0.798424 6.87347 0.751316 6.56171 0.711643C6.02871 0.660812 5.97541 0.587051 6.34837 0.559914C7.30969 0.470132 8.51849 0.433385 9.88592 0.45237C11.029 0.453887 12.1926 0.457364 13.3519 0.466399C14.0281 0.474151 14.741 0.49137 15.3988 0.494385C15.6208 0.501009 15.8488 0.510773 16.0805 0.523568C16.3648 0.54212 16.6408 0.552228 16.8938 0.55335C17.7059 0.537727 18.6122 0.551338 19.5694 0.593532C19.9201 0.602734 20.2568 0.605834 20.5745 0.60279C21.3262 0.591336 22.1412 0.599764 22.9977 0.627854C23.5302 0.643692 24.0464 0.651975 24.5411 0.652611C24.7158 0.654342 24.8581 0.641036 25.0263 0.651113C26.5075 0.756539 27.5564 0.68039 28.8895 0.72093C29.5374 0.732233 30.1564 0.732265 30.7378 0.721026C31.8724 0.72157 33.0387 0.733128 34.2319 0.755653C35.8098 0.792662 37.272 0.779821 38.7785 0.795101C39.076 0.798311 39.3632 0.797766 39.638 0.793461C40.975 0.765022 42.4272 0.771053 43.9592 0.811407C44.307 0.817237 44.6194 0.810107 44.8769 0.790472C45.1343 0.770836 45.3312 0.739114 45.4553 0.697292C45.5077 0.668588 45.4738 0.631306 45.3598 0.592637C45.1707 0.543254 44.9572 0.494868 44.7228 0.448278L36.1951 0.29194C35.837 0.283776 35.4877 0.279381 35.1491 0.278773C34.1531 0.277414 33.1266 0.265252 32.0744 0.242347C31.0348 0.220832 30.0416 0.224651 29.0343 0.218173C28.7377 0.216004 28.4331 0.210884 28.122 0.202829C26.0189 0.139078 23.9682 0.100139 21.9843 0.0862925C21.1496 0.084328 20.2479 0.0550699 19.397 0.0455867C18.5461 0.0361029 17.3825 0.032631 16.3732 0.0289351L13.2481 0.0295031C12.6334 0.0276159 12.0349 0.033246 11.4386 0.0360948C10.7149 -0.167285 10.4656 -0.214956 9.49991 -0.304061C9.16956 -0.336929 8.83353 -0.356543 8.53123 -0.360608C7.57265 -0.344531 6.36988 -0.411458 5.46086 -0.402597C4.91235 -0.406969 4.44691 -0.384374 4.11219 -0.337128C3.82164 -0.30005 3.48938 -0.270711 3.12056 -0.249554C2.11022 -0.423541 2.02118 -0.536541 2.78118 -0.580515C2.9871 -0.590737 3.27072 -0.587576 3.41942 -0.609227C3.50473 -0.622412 3.62129 -0.629955 3.75978 -0.631258C3.89828 -0.632561 4.05489 -0.627593 4.21734 -0.616738C4.73003 -0.588266 5.21057 -0.58157 5.61074 -0.597322C5.98734 -0.61817 6.44898 -0.61734 6.95114 -0.594903C7.32014 -0.559712 7.64447 -0.609402 7.96359 -0.623759C8.28271 -0.638115 8.54459 -0.663904 9.04302 -0.625329C9.13429 -0.617648 9.2249 -0.613036 9.3079 -0.611849C9.39091 -0.610663 9.4641 -0.612931 9.52185 -0.61848C10.0572 -0.643324 10.696 -0.640714 11.3864 -0.610863C12.4453 -0.581488 13.4389 -0.580387 14.3325 -0.607596C14.8675 -0.631403 15.3236 -0.673624 15.6831 -0.732609C15.781 -0.752337 15.9265 -0.764167 16.1056 -0.766964C17.0047 -0.754657 17.9811 -0.708338 18.9716 -0.630996C19.3447 -0.600006 19.7174 -0.575493 20.0816 -0.557979C20.8302 -0.519074 21.5543 -0.497272 22.2323 -0.493221C23.2175 -0.492578 24.2433 -0.477609 25.3005 -0.448448C25.953 -0.432212 26.5817 -0.42622 27.1791 -0.430535C27.7932 -0.432571 28.4489 -0.420185 29.1312 -0.393668C29.8098 -0.372059 30.4078 -0.384509 30.8532 -0.429512C30.9998 -0.453763 31.1179 -0.482561 31.2053 -0.515367C30.2117 -0.622118 29.1842 -0.676371 28.3295 -0.667201C28.0048 -0.674272 27.7353 -0.667133 27.3932 -0.708714L27.3825 -0.694805C27.3144 -0.68578 27.2117 -0.683651 27.094 -0.688823C26.9762 -0.693997 26.8516 -0.706108 26.744 -0.722853C26.7847 -0.775707 26.8232 -0.825779 26.851 -0.861942C27.5022 -0.855562 28.1345 -0.856079 28.7447 -0.863496C29.259 -0.874166 29.9572 -0.780705 30.4024 -0.815886C31.2707 -0.771893 31.8236 -0.832636 32.6023 -0.815109C33.3809 -0.797581 34.2386 -0.739679 35.0173 -0.722151C35.6968 -0.712533 36.3565 -0.710443 36.9929 -0.715889C37.2125 -0.723534 37.4657 -0.721741 37.737 -0.710618C38.1183 -0.689691 38.4729 -0.686185 38.7603 -0.700502C39.0476 -0.714819 39.256 -0.746385 39.3616 -0.791573C39.2622 -0.833903 39.1282 -0.888485 38.9737 -0.945025C39.2579 -0.991483 39.6896 -1.01105 40.2048 -1.0008L40.9327 -1.00304C41.1256 -1.00182 41.2731 -1.01438 41.3446 -1.03812C41.4161 -1.06187 41.4062 -1.09499 41.317 -1.13063C39.9367 -1.31003 39.8859 -1.32981 38.8729 -1.21441L37.5279 -1.26804L37.5505 -1.26886ZM55.7433 -0.776039L55.6408 -0.785811L55.7433 -0.776039ZM223.362 18.3116L223.338 18.3422L223.364 18.3088L223.59 18.3303L223.605 18.3109L223.362 18.3116ZM190.621 4.89962C190.303 4.86624 189.981 4.83555 189.658 4.80773C189.573 4.80342 189.494 4.80245 189.427 4.80489C189.36 4.80734 189.307 4.81314 189.273 4.82179C189.247 4.85517 189.428 4.87833 189.592 4.89397C189.798 4.91502 190.01 4.9284 190.204 4.93272C190.398 4.93705 190.567 4.93216 190.695 4.91857L190.88 4.90639L190.621 4.89962ZM26.4526 13.0356C26.6625 13.0412 26.8615 13.0421 27.0447 13.0383C27.8576 13.0113 28.636 12.9721 29.4694 12.947C30.521 12.8835 31.7294 12.8576 33.0492 12.8704C33.5648 12.8766 34.0004 12.856 34.3052 12.811C34.4876 12.7869 34.7231 12.7727 34.9972 12.7695L38.4864 12.6962C38.7021 12.681 38.8886 12.6596 39.0415 12.6327C38.734 12.6033 38.529 12.5838 38.406 12.5721C38.1508 12.5688 37.9314 12.5777 37.7699 12.598C37.5964 12.6324 37.3031 12.646 36.9483 12.6361C36.5902 12.6279 36.2409 12.6235 35.9023 12.6229C35.2628 12.6246 34.619 12.6319 33.9774 12.6364C33.7278 12.7321 32.991 12.6887 32.3601 12.6793L31.8727 12.6835C30.2795 12.7331 28.7576 12.8013 27.3145 12.8878C27.0356 12.9025 26.7953 12.9258 26.601 12.9572C26.5278 12.9816 26.5044 13.0121 26.5325 13.0462L26.43 13.0364L26.4526 13.0356ZM97.598 22.1794C97.9845 22.1859 98.387 22.1993 98.7995 22.2193C99.1174 22.2398 99.4274 22.2522 99.7175 22.2561C101.342 22.2775 103.036 22.327 104.775 22.404C105.002 22.4156 105.221 22.4213 105.422 22.4209L106.845 22.4014C107.294 22.3904 107.302 22.3793 106.976 22.2317C106.705 22.203 106.431 22.1769 106.156 22.1535C105.992 22.1378 105.725 22.1124 105.663 22.1363C105.283 22.2016 104.589 22.1593 104.006 22.1455C102.317 22.1098 100.575 22.0572 98.8696 22.014C98.5091 22.0034 98.1598 21.9981 97.8256 21.998C97.6181 21.9958 97.429 22 97.266 22.0104C97.2183 22.0114 97.1785 22.0145 97.149 22.0194C97.1195 22.0243 97.1011 22.031 97.095 22.0388C97.089 22.0467 97.0954 22.0557 97.1138 22.0652C97.1322 22.0747 97.1621 22.0844 97.2017 22.0938C97.3413 22.1267 97.5025 22.1581 97.68 22.1872L97.598 22.1794ZM109.97 0.758508L111.634 0.741011C111.834 0.739133 112.003 0.719438 112.216 0.727861C113.356 0.754556 114.41 0.747121 115.336 0.70587C115.651 0.689037 116.02 0.685671 116.422 0.695958C117.653 0.726441 118.814 0.727696 119.874 0.699685C120.559 0.694063 121.2 0.675182 121.788 0.64332C121.833 0.635925 121.861 0.625884 121.87 0.613883C121.88 0.601881 121.87 0.588201 121.841 0.573776C121.834 0.564663 121.814 0.55486 121.782 0.545042C121.751 0.535225 121.709 0.525623 121.659 0.516905C121.609 0.508186 121.553 0.500557 121.494 0.494539C121.435 0.48852 121.375 0.484254 121.318 0.482041C120.575 0.438915 119.87 0.423891 119.261 0.438188C118.696 0.455295 118.087 0.460301 117.445 0.453127C116.83 0.451241 116.413 0.507021 115.654 0.464459C115.333 0.450442 115.049 0.455057 114.852 0.477529C114.454 0.514775 113.899 0.516847 113.285 0.483375C112.918 0.466435 112.567 0.459171 112.245 0.461858C111.465 0.474104 110.72 0.498605 109.998 0.522279C109.77 0.527755 109.527 0.528511 109.27 0.524529L105.653 0.478172C104.784 0.463952 103.917 0.446949 103.064 0.440248C102.366 0.425696 101.717 0.430254 101.139 0.453759C100.523 0.478465 99.8507 0.488494 99.1355 0.483659C98.0248 0.497179 96.9206 0.50235 95.7117 0.500531C94.9407 0.50165 94.1513 0.498034 93.3457 0.486897C92.9381 0.472564 92.5922 0.484237 92.3743 0.519667C92.2418 0.548837 91.93 0.525074 91.6712 0.518304C90.2905 0.453057 88.9957 0.437597 87.8772 0.473C87.7344 0.478769 87.5776 0.480858 87.4103 0.47923C86.333 0.478015 85.2168 0.470106 84.1826 0.470019C83.9104 0.472769 83.6542 0.480317 83.4171 0.492567C83.4425 0.512551 83.5149 0.534211 83.6192 0.553054C83.7235 0.571897 83.8518 0.58648 83.9774 0.593773C84.9555 0.649603 85.8999 0.679098 86.7708 0.681016C88.2207 0.673905 89.7394 0.689894 91.3111 0.728815C92.5307 0.768054 93.6427 0.759793 94.5644 0.704645C95.2849 0.663497 96.2222 0.678979 97.2153 0.748434C97.6403 0.781605 98.0527 0.794869 98.3963 0.786413C98.727 0.77532 99.1065 0.778011 99.5125 0.794323C100.368 0.825343 101.192 0.839733 101.966 0.837209C102.723 0.82579 103.429 0.794596 104.207 0.785132C104.984 0.775668 106.168 0.781091 107.127 0.765013C108.085 0.748935 109.033 0.746769 109.97 0.758508ZM41.0273 -0.868615C41.1151 -0.782603 41.426 -0.729066 41.7604 -0.706131C42.9134 -0.604292 44.0533 -0.560957 44.9887 -0.583397C45.4939 -0.614697 46.1675 -0.602648 46.8771 -0.549618C47.7033 -0.494492 48.4755 -0.48535 49.0577 -0.523802C49.2003 -0.530522 49.3095 -0.544726 49.3756 -0.56515C49.3884 -0.58184 49.412 -0.612439 49.4163 -0.618003C49.3551 -0.632113 49.2801 -0.645186 49.197 -0.656215C49.1139 -0.667244 49.025 -0.675933 48.9371 -0.681612L45.1181 -0.780072L44.4525 -0.801739C43.237 -0.858501 42.0787 -0.881115 41.0273 -0.868615ZM48.5394 0.492757C49.1354 0.633207 49.1375 0.63042 49.4429 0.662527C50.916 0.79589 52.3882 0.86788 53.6842 0.869935C53.9722 0.869528 54.2167 0.855971 54.3968 0.830402C54.4895 0.826936 54.5485 0.815926 54.561 0.799772C54.5734 0.783618 54.5383 0.76363 54.4632 0.744166L53.9893 0.64522C53.1285 0.602383 52.2801 0.568346 51.4491 0.543314C50.4816 0.513755 49.6243 0.512614 48.6213 0.500573L48.5394 0.492757ZM97.5265 21.5575C98.0819 21.7508 98.0841 21.748 99.0139 21.7978C99.6619 21.8332 100.29 21.8539 100.881 21.8594C101.602 21.8655 102.342 21.8764 103.062 21.8852C103.237 21.8914 103.386 21.8863 103.479 21.8709C103.572 21.8555 103.603 21.8309 103.566 21.8019C103.471 21.7705 103.324 21.7401 103.147 21.7156C102.97 21.6911 102.774 21.6741 102.591 21.6672L102.199 21.6626C101.722 21.653 101.227 21.6386 100.766 21.6365C100.468 21.6445 100.121 21.6383 99.7551 21.6184C99.3886 21.5985 99.0118 21.5654 98.6543 21.5217L97.5265 21.5575ZM51.5051 -0.61587C51.6534 -0.582394 51.8211 -0.550331 52.0038 -0.520535C52.7112 -0.437948 53.4599 -0.391043 54.1031 -0.389013C54.4072 -0.383897 54.6853 -0.402163 54.995 -0.37562C55.5503 -0.34015 56.0885 -0.321256 56.5805 -0.319961C56.5805 -0.319961 56.7185 -0.327706 56.7638 -0.329359L56.858 -0.451757C56.6251 -0.480112 56.3822 -0.503276 56.1405 -0.520184C55.3293 -0.552748 54.5323 -0.575011 53.7374 -0.600057C52.9425 -0.625102 52.6653 -0.636608 52.1455 -0.647365C51.9136 -0.641452 51.6991 -0.630902 51.5051 -0.61587ZM33.94 14.6006L35.0014 14.8511C35.3449 14.8729 35.6658 14.8768 35.9153 14.8624C36.1647 14.8479 36.3291 14.8158 36.3834 14.7709C36.4708 14.7499 36.4796 14.7188 36.4078 14.6842C36.336 14.6495 36.1893 14.6139 35.9985 14.5849C35.8148 14.5505 35.6051 14.5197 35.3823 14.4944C35.1596 14.469 34.9286 14.4497 34.7036 14.4375L33.94 14.6006ZM42.7777 13.3533C42.0835 13.3108 41.4195 13.2934 40.8364 13.3025C40.4691 13.3273 39.9713 13.3194 39.4452 13.2803C38.4884 13.2024 37.5662 13.1808 36.8729 13.2201C36.8729 13.2201 36.8472 13.2535 36.7297 13.2632C36.6122 13.2729 37.0782 13.2964 37.1807 13.3062C37.9325 13.3301 38.6885 13.3485 39.3421 13.3571C39.7478 13.3567 40.177 13.3646 40.6222 13.3806C41.2348 13.4053 41.8158 13.4133 42.3424 13.4043C42.3424 13.4043 42.5461 13.3969 42.7756 13.356L42.7777 13.3533ZM116.921 0.304631C116.59 0.257449 116.23 0.219103 115.869 0.192471C115.509 0.165839 115.156 0.151613 114.839 0.150855C114.596 0.148393 114.399 0.160851 114.28 0.186258C114.161 0.211664 114.126 0.24857 114.181 0.291141C114.427 0.314601 114.755 0.34588 114.939 0.363476C115.579 0.361754 116.124 0.339131 116.921 0.304631ZM178.995 4.28057C178.729 4.24259 178.436 4.21355 178.149 4.19677C177.863 4.17999 177.594 4.17614 177.374 4.18567C177.261 4.1898 177.338 4.23296 177.318 4.258C177.306 4.26367 177.306 4.27073 177.319 4.27844C177.332 4.28614 177.357 4.29421 177.391 4.30179C177.426 4.30937 177.469 4.31618 177.516 4.32152C177.563 4.32686 177.611 4.33052 177.657 4.33213C177.946 4.34849 178.218 4.35336 178.45 4.34631C178.682 4.33925 178.867 4.32049 178.987 4.2917L178.995 4.28057ZM183.154 4.82352C183.113 4.8011 183.026 4.77775 182.908 4.75772C182.79 4.7377 182.649 4.72235 182.512 4.7145C182.27 4.71344 182.049 4.71966 181.86 4.73291C181.654 4.74313 181.802 4.80802 182.08 4.84652C182.198 4.86197 182.324 4.87402 182.448 4.88172C182.572 4.88941 182.691 4.89254 182.795 4.89085C182.899 4.88915 182.985 4.88269 183.047 4.87197C183.108 4.86124 183.144 4.84656 183.15 4.82908L183.154 4.82352ZM62.302 -0.377486C61.6815 -0.457564 61.2039 -0.437419 60.6786 -0.469604C60.1532 -0.501789 60.0238 -0.505175 60.0942 -0.453673C60.1646 -0.402172 60.5247 -0.412617 60.7502 -0.391111C61.0549 -0.362575 61.3614 -0.346189 61.6354 -0.343783C61.9095 -0.341376 62.1403 -0.353046 62.302 -0.377486ZM191.604 13.1719C191.275 13.1539 190.953 13.1412 190.643 13.134C190.602 13.1414 190.577 13.1512 190.568 13.1626C190.559 13.1741 190.567 13.1871 190.592 13.2007C190.592 13.2007 190.802 13.2417 190.925 13.2535C191.378 13.2937 191.401 13.2361 191.604 13.1719ZM238.057 20.6327C238.279 20.6868 238.383 20.7235 238.561 20.7495C238.643 20.7585 238.728 20.765 238.809 20.7686C238.89 20.7722 238.965 20.7728 239.029 20.7702C239.108 20.7547 239.126 20.7308 239.081 20.7035C239.081 20.7035 238.854 20.655 238.768 20.6527C238.522 20.6413 238.283 20.6345 238.057 20.6327ZM51.74 -0.83533C51.2685 -0.880295 50.8175 -0.923309 50.491 -0.870835C51.2398 -0.814363 51.2398 -0.81436 51.74 -0.83533ZM59.3767 -0.322035C58.9006 -0.418201 58.6212 -0.426928 58.3927 -0.415878C58.3441 -0.413095 58.312 -0.406892 58.3011 -0.398212C58.2903 -0.389531 58.3013 -0.378844 58.3326 -0.367765C58.3638 -0.356687 58.4136 -0.345822 58.4743 -0.336813C58.5351 -0.327805 58.6035 -0.321141 58.6693 -0.317834C58.9176 -0.315066 59.1544 -0.316472 59.3767 -0.322035ZM83.8808 -0.28137C83.8915 -0.29528 83.9044 -0.31197 83.7814 -0.3237C83.7491 -0.329655 83.7114 -0.334775 83.6718 -0.33855C83.6322 -0.342326 83.5922 -0.344619 83.5559 -0.345202C83.5559 -0.345202 83.543 -0.328511 83.5345 -0.317384L83.8808 -0.28137ZM100.897 22.8105L100.623 22.8232L100.746 22.8349L101.071 22.842L100.897 22.8105ZM197.316 4.60648C197.214 4.59671 197.111 4.58693 197.096 4.6064C197.075 4.60942 197.061 4.61377 197.057 4.6191C197.053 4.62442 197.059 4.63056 197.073 4.637C197.073 4.637 197.216 4.65069 197.278 4.65656L197.316 4.60648ZM181.353 4.76222C181.286 4.76111 181.225 4.76241 181.174 4.76606L181.161 4.78275L181.366 4.8023L181.353 4.76222ZM42.2363 8.73907C42.1571 8.72893 42.0732 8.72093 41.9903 8.71561L41.8878 8.70583C41.8878 8.70583 41.9979 8.73426 42.0594 8.74012C42.1209 8.74599 42.1705 8.73877 42.2363 8.73907Z" fill="#FEC947"/>
</g>
</svg>
