<svg width="52" height="2" viewBox="0 0 52 2" fill="none" xmlns="http://www.w3.org/2000/svg">
<path d="M6.96501 1.08877L7.06888 1.0929L6.82077 1.09485L6.91608 1.09905C7.0261 1.10013 7.18987 1.09691 7.25598 1.10016C7.25444 1.10264 7.13125 1.10221 7.09195 1.10381C7.05595 1.10549 7.02497 1.10721 6.99938 1.10895C7.05932 1.10953 7.12723 1.10973 7.19909 1.10954C7.2969 1.10902 7.38959 1.10923 7.46692 1.11013C7.62794 1.11134 7.78002 1.11327 7.95354 1.11492L7.86945 1.1201L8.09877 1.12099C8.12444 1.12079 8.14938 1.12178 8.17512 1.12147C8.38961 1.11882 8.45992 1.12214 8.54321 1.12515C8.55977 1.12588 8.58086 1.12651 8.6059 1.12702C8.86892 1.12851 9.13113 1.12441 9.37865 1.12344C9.42625 1.12303 9.47316 1.12237 9.51607 1.1215C9.60801 1.11989 9.70698 1.11881 9.80393 1.11837C9.90088 1.11793 9.99272 1.11814 10.071 1.11897C10.2445 1.12077 10.4481 1.12114 10.6621 1.12004C10.7262 1.11962 10.7888 1.11954 10.8458 1.11981C10.9028 1.12009 10.953 1.12071 10.9932 1.12164L11.1434 1.11971C11.1958 1.12163 11.2667 1.12311 11.3517 1.12405C11.4367 1.12499 11.5342 1.12538 11.6381 1.12519C11.7489 1.12497 11.8594 1.12518 11.9745 1.12492C12.2113 1.1246 12.4375 1.12522 12.646 1.12676C12.9601 1.12828 13.2655 1.13008 13.5841 1.13124C13.7821 1.13224 13.9732 1.13362 14.1562 1.13536C14.3767 1.13719 14.6215 1.13778 14.8788 1.13712C14.8807 1.13409 14.7702 1.13388 14.6982 1.13326C14.4652 1.13143 14.2232 1.13031 13.9814 1.12887C13.8728 1.12817 13.7681 1.12726 13.6681 1.12617C13.4996 1.1246 13.3189 1.1236 13.1293 1.12318C12.8328 1.12184 12.5493 1.11978 12.2817 1.11702C12.2612 1.1167 12.2429 1.1163 12.2271 1.11584C12.2246 1.11555 12.2254 1.11522 12.2292 1.11489C12.2331 1.11456 12.2399 1.11424 12.2491 1.11395C12.2582 1.11366 12.2694 1.11342 12.2815 1.11325C12.2936 1.11308 12.3063 1.11298 12.3182 1.11297C12.4337 1.11206 12.5578 1.11109 12.6595 1.1118C12.6635 1.11181 12.6679 1.1118 12.6723 1.11177C12.6767 1.11173 12.6811 1.11167 12.6852 1.11159C12.929 1.10968 13.1105 1.11224 13.2886 1.11332C13.5876 1.1144 13.8717 1.11636 14.1364 1.11915C14.1766 1.11955 14.221 1.11974 14.268 1.11974C14.5546 1.12067 14.8154 1.12307 15.0384 1.12682C15.1313 1.12814 15.2154 1.12985 15.3169 1.13088C15.3792 1.13157 15.4313 1.13264 15.4699 1.13404C15.5085 1.13544 15.533 1.13713 15.5418 1.13902C15.5888 1.13855 15.636 1.13817 15.6829 1.13791C15.7109 1.13778 15.7364 1.13792 15.7543 1.13832C15.7722 1.13872 15.7812 1.13934 15.7795 1.14006C15.7782 1.14212 15.7142 1.14251 15.6586 1.14284C15.6878 1.14358 15.7218 1.14418 15.7597 1.14463C15.9728 1.14724 16.2061 1.14903 16.4546 1.14994C16.6503 1.15002 16.7932 1.15299 17.0022 1.15243C17.0278 1.15223 17.0444 1.15307 17.0654 1.15344C17.1184 1.15482 17.1883 1.15572 17.2689 1.15604C17.3496 1.15636 17.4386 1.15611 17.5283 1.1553C17.61 1.16079 17.8545 1.15791 18.0198 1.15908C18.0805 1.15732 18.021 1.15714 18.0214 1.15649C18.0218 1.15584 18.0214 1.15649 18 1.15666C17.8518 1.1518 17.6319 1.14886 17.3709 1.14824C17.3243 1.14777 17.2805 1.14718 17.24 1.14647C17.1785 1.14544 17.1069 1.14476 17.0284 1.14447C16.9433 1.14399 16.8675 1.14305 16.8045 1.14171C16.7664 1.14134 16.7357 1.14067 16.7154 1.13978C16.6952 1.13889 16.6859 1.13779 16.6884 1.13659C16.718 1.13594 16.7499 1.1354 16.7831 1.13499C16.9518 1.13373 17.1126 1.13412 17.2336 1.13608C17.4444 1.13949 17.7075 1.14087 17.9357 1.1436C18.0905 1.14533 18.2582 1.1465 18.4358 1.1471C18.4358 1.1471 18.4366 1.14591 18.4366 1.1458C18.4593 1.14551 18.4826 1.14533 18.5051 1.14527C18.5051 1.14527 18.5051 1.14527 18.5048 1.14581C18.493 1.14621 18.478 1.14655 18.4616 1.14679L18.406 1.14723C18.4396 1.14782 18.4688 1.14889 18.5072 1.1488C18.5875 1.14873 18.6622 1.14911 18.7268 1.14992C18.7914 1.15073 18.8446 1.15194 18.8831 1.15349C18.954 1.1557 19.0472 1.15731 19.1569 1.15824C19.2397 1.15923 19.3185 1.16037 19.3932 1.16166C19.3932 1.16166 19.3924 1.16295 19.4258 1.16398C19.3875 1.16446 19.3484 1.16476 19.3103 1.16489C19.1488 1.16454 18.9873 1.16409 18.8302 1.16338C18.7734 1.16291 18.7209 1.16223 18.6739 1.16138C18.5411 1.1596 18.3868 1.15869 18.2201 1.1587C18.2201 1.1587 18.1859 1.15897 18.1688 1.1591C18.2008 1.16229 18.3676 1.16109 18.4214 1.16358C18.4595 1.16392 18.5274 1.16436 18.5228 1.16483C18.5146 1.16543 18.5112 1.16603 18.5128 1.16658C18.5145 1.16714 18.5211 1.16764 18.5322 1.16805C18.5434 1.16845 18.5587 1.16876 18.5773 1.16893C18.5958 1.16911 18.617 1.16916 18.6394 1.16908C18.8222 1.16924 18.9895 1.17046 19.131 1.17265C19.186 1.17319 19.2498 1.17333 19.3049 1.17376C19.3389 1.17395 19.369 1.17434 19.3936 1.17489C19.5153 1.1784 19.6918 1.18034 19.8967 1.18042C19.9947 1.18069 20.0837 1.18149 20.1592 1.18277C20.2142 1.18342 20.2448 1.1821 20.2875 1.18177L20.462 1.1819L20.2559 1.17782C20.3222 1.17385 20.3655 1.17276 20.4418 1.17324C20.5532 1.17392 20.6607 1.1748 20.7637 1.17588C20.8399 1.17668 20.8985 1.17826 21.0096 1.17761C21.0291 1.17752 21.0471 1.1776 21.0605 1.17785C21.1745 1.18057 21.3186 1.18238 21.4829 1.18315C21.553 1.1868 21.7071 1.18548 21.8481 1.18459C21.8806 1.18714 21.7996 1.18734 21.748 1.18818C21.8581 1.18914 21.9681 1.19033 22.0825 1.19115C22.116 1.1916 22.1557 1.1918 22.1986 1.19173C22.2415 1.19165 22.2863 1.19131 22.3297 1.19072C22.3515 1.19028 22.3765 1.19003 22.3995 1.19003C22.4225 1.19003 22.4417 1.19028 22.4531 1.19072C22.5075 1.19223 22.6054 1.19232 22.6467 1.19437C22.6623 1.1949 22.6867 1.19519 22.7155 1.1952C22.7444 1.19521 22.7758 1.19494 22.8042 1.19442C22.7781 1.19391 22.7556 1.19329 22.7372 1.19258C22.6706 1.1902 22.7104 1.18773 22.823 1.18469C22.9667 1.18637 23.1148 1.18779 23.2455 1.18988C23.3171 1.19131 23.4097 1.19202 23.5128 1.19193C23.6159 1.19184 23.7254 1.19097 23.829 1.1894C23.8667 1.18877 23.9078 1.18849 23.944 1.1886C23.9802 1.18872 24.0089 1.18922 24.0244 1.19001C24.0326 1.19083 24.032 1.19176 24.0227 1.19272L23.9201 1.19352C23.9201 1.19352 23.9195 1.1945 23.9193 1.19471L24.0546 1.19624C24.1265 1.19696 24.2029 1.19744 24.2705 1.1982C24.368 1.19973 24.4834 1.20058 24.6096 1.20071C24.7264 1.20072 24.8401 1.20098 24.9496 1.20149C25.0558 1.20194 25.1223 1.20454 25.2194 1.20583C25.2928 1.2068 25.3758 1.20738 25.4652 1.20756C25.6198 1.20783 25.7565 1.2092 25.863 1.21154C26.0237 1.2063 26.0921 1.20587 26.2052 1.20886L26.2598 1.20994L26.2819 1.20869L26.324 1.20943C26.4042 1.21053 26.4844 1.21162 26.569 1.21257C26.69 1.21315 26.8251 1.21279 26.9613 1.21154C26.9869 1.21134 27.026 1.21017 27.0521 1.20921C27.0783 1.20825 27.1397 1.20518 27.1835 1.20323C27.155 1.20119 27.1221 1.19919 27.1022 1.19698C27.1009 1.19662 27.1029 1.19623 27.1083 1.19584C27.1137 1.19545 27.1222 1.19507 27.1332 1.19473C27.1442 1.1944 27.1573 1.19411 27.1715 1.1939C27.1857 1.19368 27.2006 1.19355 27.2151 1.19351C27.2433 1.19338 27.2707 1.19339 27.2959 1.19352C27.4187 1.19454 27.5346 1.19586 27.6426 1.19747C27.6796 1.19859 27.7344 1.19921 27.7984 1.19924C27.8624 1.19926 27.9319 1.19869 27.9958 1.19761C28.1356 1.20004 28.3047 1.20144 28.4914 1.20168C28.6769 1.20453 28.9151 1.20493 29.083 1.20878C29.0837 1.20769 29.1102 1.20609 29.1405 1.20531C29.1881 1.20415 29.2405 1.20315 29.2955 1.20237L29.6822 1.20364C29.7021 1.2025 29.7256 1.20138 29.7523 1.20029C29.7713 1.19941 29.8007 1.19866 29.8344 1.1982C29.8681 1.19773 29.9033 1.19759 29.9327 1.1978C30.0091 1.19817 30.0678 1.19965 30.1664 1.19845C30.0385 1.19509 29.8524 1.19349 29.6413 1.19395C29.445 1.19394 29.2602 1.19307 29.0938 1.19136C29.0387 1.19082 28.9669 1.18999 28.9549 1.18868C28.9316 1.1851 28.8297 1.18461 28.7109 1.18403C28.6167 1.18376 28.5337 1.18285 28.4687 1.18138C28.4038 1.1799 28.3587 1.17791 28.3372 1.17555C28.3385 1.1735 28.365 1.172 28.4503 1.17165L28.8045 1.17038C28.8508 1.17146 28.8941 1.17263 28.9343 1.17388C29.0032 1.1757 29.0931 1.17691 29.1969 1.17742C29.3006 1.17793 29.4156 1.17773 29.5327 1.17683C29.5926 1.17636 29.6525 1.17589 29.6902 1.17678C29.7228 1.17769 29.752 1.17868 29.7778 1.17975C29.7813 1.18033 29.7809 1.18095 29.7767 1.18159C29.7993 1.1815 29.8224 1.18132 29.8451 1.18105C30.0348 1.1772 30.1617 1.17857 30.2707 1.18116C30.3001 1.1819 30.3208 1.18281 30.3501 1.18366C30.3794 1.1845 30.3874 1.1853 30.4171 1.18539C30.6552 1.18589 30.6936 1.19259 30.8884 1.19429C30.8968 1.19462 30.901 1.19503 30.9007 1.19548C30.9005 1.19594 30.8957 1.19642 30.8868 1.19688C30.8709 1.19722 30.8532 1.19748 30.8353 1.19762C30.8173 1.19776 30.7998 1.19778 30.7842 1.19769C30.6915 1.19757 30.6138 1.19654 30.5646 1.19478C30.528 1.1939 30.4887 1.19309 30.4469 1.19237L30.2128 1.19916C30.4043 1.20024 30.582 1.20203 30.7416 1.20448C30.7752 1.20529 30.8392 1.20512 30.89 1.20547L31.2629 1.20836C31.3391 1.20905 31.3974 1.21107 31.5179 1.20894C31.5179 1.20894 31.5902 1.20913 31.6068 1.20975C31.6235 1.21037 31.6937 1.21391 31.7348 1.21617C31.7944 1.21624 31.8799 1.21568 31.9134 1.21649C31.9706 1.21824 32.0179 1.22021 32.0545 1.22238L32.2888 1.22216C32.2986 1.21997 32.2999 1.21783 32.2928 1.21578C32.2838 1.21377 32.2945 1.21159 32.3239 1.20939C32.3534 1.20719 32.4008 1.20505 32.4623 1.20314L32.7413 1.19256C32.7812 1.19206 32.8221 1.19187 32.8586 1.19201C32.8951 1.19215 32.9253 1.19261 32.9452 1.19333C33.0331 1.19576 33.1339 1.19798 33.2218 1.20041C33.3544 1.19937 33.3398 1.1954 33.4434 1.19308L33.7557 1.19063C33.8223 1.18612 33.8888 1.18183 33.763 1.17884C33.7378 1.17828 33.7644 1.17657 33.7437 1.17554C33.8646 1.17287 33.9837 1.17291 34.0994 1.17168C34.1485 1.17045 34.1912 1.16906 34.2254 1.16757C34.2663 1.16522 34.3371 1.16311 34.4224 1.16169C34.5077 1.16028 34.6007 1.15967 34.6813 1.16001C34.8195 1.15994 34.964 1.15921 35.1084 1.15784C35.1578 1.15736 35.2073 1.15714 35.2535 1.1572C35.2997 1.15727 35.3416 1.15761 35.3764 1.15821C35.5021 1.15992 35.6035 1.16246 35.674 1.16567C35.7452 1.16851 35.8493 1.17058 35.9768 1.17169C36.2121 1.16985 36.2836 1.16423 36.4394 1.16021L36.2155 1.15733C36.2169 1.15517 36.2439 1.1527 36.1508 1.15181C36.0577 1.15093 36.114 1.14941 36.1534 1.1477C36.1686 1.1468 36.1941 1.14597 36.2255 1.14535C36.257 1.14473 36.2923 1.14436 36.3257 1.14431L36.5305 1.14367C36.6034 1.14337 36.6715 1.14362 36.7274 1.14438C36.7832 1.14514 36.8247 1.14638 36.8471 1.14796C36.8741 1.14953 36.9153 1.15082 36.9682 1.15175C37.0333 1.15346 37.0838 1.15553 37.1177 1.1579L37.403 1.15781C37.4056 1.15987 37.4368 1.16161 37.4912 1.16273C37.5455 1.16386 37.6198 1.1643 37.7014 1.16398L37.8929 1.16409C38.1057 1.16425 38.1476 1.16532 38.1821 1.1714L37.8924 1.17873C37.9161 1.18167 37.94 1.18428 37.964 1.18689C37.8882 1.1895 37.7928 1.19174 37.6875 1.19336C37.5876 1.19525 37.4857 1.19702 37.382 1.19867C37.2703 1.2003 37.1546 1.20153 37.0173 1.20325C36.9913 1.20399 36.9521 1.20538 36.9046 1.20661C36.8572 1.2078 36.8081 1.20894 36.7577 1.21002C36.7564 1.21219 36.7552 1.21413 36.7282 1.21639C36.8079 1.21638 36.8928 1.21583 36.9752 1.21477C37.0576 1.21371 37.135 1.21218 37.2003 1.21032C37.2113 1.20998 37.2244 1.2097 37.2385 1.20947C37.2525 1.20925 37.2674 1.2091 37.2819 1.20903C37.4225 1.2089 37.5006 1.20646 37.5835 1.20333C37.6364 1.20184 37.7011 1.20069 37.7685 1.20005C37.8969 1.19904 38.0256 1.19739 38.1499 1.19609C38.1882 1.19562 38.2272 1.19532 38.2654 1.19518C38.3908 1.19479 38.5199 1.19378 38.6461 1.19219C38.6864 1.19187 38.7262 1.19132 38.7622 1.19056C38.7982 1.18981 38.8294 1.18889 38.8531 1.18788C38.831 1.18628 38.8234 1.18448 38.8308 1.18256C38.8316 1.18127 38.9263 1.17955 38.9741 1.1781C39.0218 1.17665 38.9408 1.17675 38.9156 1.1763C38.81 1.17487 38.7936 1.17392 38.8766 1.17047C38.904 1.1694 38.9241 1.16825 38.9358 1.16711C38.9475 1.16596 38.9505 1.16483 38.9446 1.1638C38.9471 1.1598 38.9152 1.15617 38.9007 1.15209C38.9616 1.1501 39.0563 1.14828 39.0794 1.1453C39.0869 1.14467 39.0994 1.14404 39.1159 1.14346C39.1325 1.14288 39.1527 1.14237 39.1752 1.14197C39.233 1.14119 39.2873 1.14011 39.3339 1.13881C39.3805 1.13751 39.4181 1.13603 39.4437 1.13448C39.4528 1.13382 39.4703 1.13321 39.4927 1.13275C39.5151 1.1323 39.5407 1.13204 39.5644 1.13203C39.5928 1.13201 39.6169 1.13229 39.6316 1.13281C39.6463 1.13334 39.6506 1.13407 39.6436 1.13485C39.6372 1.13639 39.6263 1.13795 39.6109 1.13952C39.6102 1.14071 39.6094 1.1419 39.5828 1.14362C39.6668 1.14373 39.758 1.1432 39.8465 1.14207C39.935 1.14094 40.0175 1.13925 40.0849 1.1372C40.1585 1.13512 40.228 1.13285 40.3105 1.13037C40.3127 1.12669 40.3127 1.12669 40.486 1.12189L41.2664 1.12653L41.4425 1.12396C41.6056 1.12182 41.6393 1.12242 41.7227 1.12521L41.7766 1.12759C41.9178 1.12648 42.0803 1.1252 42.1409 1.13054C42.1808 1.12786 42.2026 1.12704 42.1987 1.12654C42.1799 1.1218 42.1294 1.11743 42.0492 1.11361C42.0284 1.11269 42.0164 1.1115 41.9914 1.11062C41.9175 1.10632 41.9209 1.10087 42.0008 1.09536C42.039 1.09296 42.0892 1.09061 42.1499 1.08838C42.0966 1.08392 42.0175 1.07987 41.9147 1.07634C41.8265 1.07353 41.7584 1.07026 41.7121 1.06663C41.672 1.06303 41.6016 1.05993 41.5048 1.05749C41.4552 1.05637 41.4224 1.05481 41.4097 1.05296C41.4241 1.04846 41.4599 1.04384 41.5161 1.03921C41.5294 1.03776 41.5548 1.03631 41.5903 1.03496C41.6258 1.03362 41.6706 1.03242 41.721 1.03147C41.721 1.03147 41.7471 1.03061 41.7602 1.03008C41.7934 1.02479 41.7834 1.01972 41.731 1.01524C41.7245 1.01405 41.7047 1.01304 41.6736 1.01232C41.6425 1.01159 41.6015 1.01118 41.5548 1.01113C41.457 1.01082 41.3681 1.01001 41.2748 1.00945C41.1737 1.00897 41.0886 1.0077 41.0283 1.00576C40.9681 1.00383 40.935 1.00131 40.9325 0.998469C40.9351 0.997696 40.9355 0.996937 40.9339 0.996197C40.9328 0.995812 40.933 0.995414 40.9347 0.995007L41.1857 0.988301L40.9637 0.9824C40.966 0.978722 41.0901 0.977749 41.1594 0.975697L41.1308 0.973877C41.089 0.97259 41.0203 0.97356 40.9604 0.973921L40.9005 0.974391L40.9016 0.972661C40.8777 0.97005 40.7407 0.97134 40.6994 0.969188C40.6582 0.967035 40.7017 0.96551 40.7832 0.96444C40.8403 0.963609 40.8999 0.963087 40.9575 0.962915C41.0152 0.962742 41.0693 0.962923 41.1159 0.963444C41.1431 0.963903 41.1644 0.964541 41.1786 0.96532C41.2655 0.968905 41.3645 0.972229 41.4747 0.975269C41.5581 0.977842 41.6689 0.979692 41.7992 0.980689C41.8364 0.981194 41.8839 0.981258 41.9332 0.980872C41.9824 0.980485 42.0304 0.979672 42.0687 0.978574L42.1365 0.979011C42.1365 0.979011 42.1797 0.977918 42.1757 0.977627C42.1701 0.973048 42.224 0.968058 42.3292 0.963397L42.2618 0.962204C42.16 0.961711 42.2382 0.959052 42.2308 0.95728C42.1587 0.956877 42.0605 0.957324 42.0364 0.95493L41.9856 0.954575L42.007 0.954408L42.0277 0.955321L42.1354 0.953184C42.0935 0.952222 42.0642 0.951267 42.0263 0.950595C42.0058 0.950136 41.9906 0.949536 41.9815 0.94883C41.9724 0.948124 41.9697 0.947328 41.9735 0.946489C41.9796 0.945199 41.9729 0.943996 41.9541 0.942993C41.9354 0.941991 41.9052 0.941223 41.8664 0.940763C41.8199 0.940267 41.7996 0.938596 41.7745 0.937824L41.9323 0.930558C41.9323 0.930558 41.8681 0.931061 41.9072 0.929894L41.9065 0.930976L41.9882 0.929581C42.0487 0.928245 42.087 0.92816 42.1115 0.929797C42.1361 0.931435 42.1372 0.929596 42.1496 0.930252C42.1505 0.928846 42.1214 0.927567 42.0966 0.92647C42.0664 0.925502 42.0313 0.92466 41.9917 0.923956C42.0928 0.918749 42.0972 0.918607 41.9966 0.915951C41.8961 0.913295 41.9442 0.911304 41.8555 0.910061C41.7669 0.908819 41.888 0.905824 41.9519 0.905645C41.999 0.905578 42.0484 0.905233 42.0965 0.904632C42.1446 0.904031 42.1904 0.90319 42.2308 0.902166L42.2337 0.897406C42.2054 0.897519 42.1766 0.897745 42.1482 0.898077C42.0492 0.899715 41.9589 0.901285 41.8879 0.899043L41.9409 0.895936L41.6604 0.895231C41.6794 0.892694 41.7344 0.89014 41.8137 0.888107C41.8105 0.886519 41.8115 0.884893 41.8168 0.883239C41.8175 0.882049 41.7874 0.8825 41.7706 0.882202C41.7093 0.881387 41.6619 0.8801 41.6325 0.878454C41.6031 0.876808 41.5925 0.874853 41.6018 0.872761C41.603 0.870922 41.7153 0.868211 41.7745 0.868931C41.9252 0.870074 42.0927 0.870331 42.2679 0.869688C42.3696 0.870397 42.3624 0.87519 42.5421 0.873672C42.5553 0.871558 42.5421 0.869607 42.5046 0.868114C42.4671 0.866622 42.4074 0.865669 42.3344 0.865399C42.3966 0.861035 42.6259 0.862035 42.6587 0.857149C42.6014 0.856942 42.5381 0.857173 42.475 0.85782C42.4119 0.858466 42.3512 0.859505 42.2989 0.860834C42.2873 0.861174 42.2735 0.861457 42.2587 0.861655C42.2439 0.861852 42.2285 0.861959 42.2141 0.861965C42.1997 0.861971 42.1866 0.861876 42.1761 0.861689C42.1656 0.861501 42.158 0.861228 42.1541 0.860893C42.1933 0.859401 42.237 0.857659 42.2848 0.8561C42.3325 0.854541 42.3458 0.853791 42.3757 0.853665C42.6024 0.851886 42.7338 0.845903 42.9356 0.843136C42.9869 0.842733 43.0056 0.840002 42.9631 0.839905C42.9226 0.839829 42.8874 0.839433 42.8615 0.838761C42.8356 0.83809 42.82 0.83717 42.8165 0.836104C42.7914 0.834652 42.7579 0.833359 42.7167 0.832259C42.935 0.826956 43.185 0.822846 43.4435 0.820312C43.4926 0.819792 43.5419 0.81967 43.5842 0.819962C43.7159 0.821276 43.8582 0.82211 44.0084 0.822447C44.0612 0.822658 44.1086 0.823163 44.1479 0.823935C44.2785 0.82614 44.394 0.825342 44.5158 0.821049L44.7158 0.814313C44.7167 0.812906 44.6965 0.811127 44.6851 0.808848L44.8318 0.805652L45.7476 0.825594L45.9866 0.817582L46.2613 0.820917C46.2839 0.820843 46.307 0.820661 46.3297 0.82038C46.3993 0.818004 46.4561 0.81562 46.5299 0.813427C46.6036 0.811234 46.7138 0.811984 46.8048 0.80944C46.8957 0.806897 46.9719 0.80759 47.0747 0.806569C47.0953 0.8041 47.0968 0.801706 47.0791 0.799538C47.0805 0.797266 47.039 0.795438 47.0404 0.793275C47.0509 0.791181 47.0414 0.789218 47.0127 0.787563C46.984 0.785909 46.937 0.784616 46.8759 0.7838C46.723 0.777582 46.5285 0.772294 46.2981 0.768096C46.2778 0.767755 46.2618 0.767278 46.2512 0.766695C46.2406 0.766112 46.2355 0.765435 46.2364 0.764706C46.2461 0.762668 46.2383 0.760744 46.2136 0.759076C46.1888 0.757408 46.1477 0.756037 46.0933 0.755064C46.0787 0.754831 46.0686 0.754461 46.0642 0.754C46.044 0.753529 46.0308 0.752881 46.0256 0.752119C46.0205 0.751357 46.0237 0.750507 46.0349 0.74965C46.0462 0.748794 46.065 0.74796 46.0897 0.74723C46.1144 0.7465 46.1441 0.745897 46.1759 0.745481C46.2225 0.744765 46.2698 0.744107 46.3176 0.743508C46.318 0.742859 46.2757 0.74233 46.2846 0.74183C46.3097 0.740204 46.3213 0.738561 46.3186 0.737032C46.3158 0.735503 46.2988 0.734129 46.2687 0.73302L46.5657 0.720786C46.7147 0.720173 46.8675 0.718132 46.995 0.715049C46.9983 0.714368 46.9947 0.713733 46.9845 0.713208C46.9744 0.712683 46.9581 0.712286 46.9372 0.712058C46.8824 0.711196 46.832 0.710085 46.773 0.709148C46.7371 0.708531 46.7088 0.707681 46.6897 0.706649C46.6707 0.705616 46.6611 0.70442 46.6618 0.703132L46.8218 0.699077C46.7846 0.697324 46.7554 0.696369 46.7305 0.695273C46.7545 0.693735 46.7905 0.692256 46.8356 0.69095C46.8807 0.689644 46.9337 0.688547 46.9906 0.687742C47.0054 0.687608 47.0203 0.687549 47.0341 0.68757C47.048 0.68759 47.0607 0.687689 47.0714 0.687862C47.1675 0.690767 47.305 0.68872 47.4381 0.686814C47.5713 0.684908 47.6444 0.683688 47.7433 0.682159L47.9127 0.683521C47.9605 0.682807 48.0046 0.681846 48.0415 0.680715C48.0784 0.679584 48.1071 0.678315 48.1253 0.677009C48.1268 0.674629 48.0414 0.675084 47.995 0.674371C47.8889 0.671817 47.7394 0.670635 47.5713 0.671021C47.5286 0.671357 47.4909 0.670361 47.4528 0.669906C47.3714 0.668791 47.294 0.667529 47.221 0.666127C47.1738 0.665029 47.1304 0.663823 47.0913 0.662516C47.0932 0.659487 47.285 0.659059 47.1886 0.656586C47.2271 0.656284 47.2446 0.6555 47.2613 0.656015C47.3869 0.655296 47.5063 0.655516 47.6057 0.65665C47.7959 0.658978 48.02 0.659839 48.2598 0.659161C48.518 0.658557 48.7581 0.659625 48.9603 0.662276C49.0382 0.663094 49.1283 0.663345 49.2238 0.663008C49.3377 0.662357 49.4479 0.662336 49.5473 0.662945C49.5798 0.663256 49.6172 0.663326 49.6565 0.663149C49.6958 0.662971 49.7359 0.662551 49.7736 0.661923C49.7741 0.661166 49.7448 0.660319 49.7535 0.660036C49.8797 0.655601 49.9468 0.650338 50.128 0.646332C50.2435 0.645426 50.3762 0.644385 50.4337 0.647701C50.4913 0.651018 50.456 0.653017 50.2867 0.658328C50.3163 0.658726 50.3539 0.658776 50.393 0.65847C50.4321 0.658163 50.4702 0.657519 50.5006 0.65665L50.6434 0.652838L50.7734 0.649127C50.7749 0.646639 50.7761 0.644692 50.7774 0.642637C50.7747 0.640413 50.8 0.637993 50.8498 0.635718C50.8791 0.634497 50.9055 0.633246 50.9287 0.631976C51.0226 0.62691 51.0671 0.621678 51.0573 0.616866C51.0284 0.609801 50.9742 0.603023 50.8952 0.596609C50.8097 0.590282 50.7801 0.583087 50.7161 0.576485C50.682 0.573429 50.6368 0.570543 50.5809 0.567857C50.478 0.562098 50.3623 0.55644 50.2595 0.550572C50.1567 0.544705 50.0319 0.539979 49.9117 0.534786C49.7273 0.528206 49.5236 0.522076 49.3015 0.51643C49.1679 0.512096 49.0301 0.507795 48.9095 0.503144C48.7663 0.497827 48.5902 0.493274 48.3857 0.489599C48.2074 0.485866 48.053 0.481444 47.9256 0.476417C47.9123 0.475878 47.9027 0.475265 47.8969 0.474596C47.8878 0.470682 47.8271 0.467378 47.7239 0.465189C47.7354 0.464185 47.7488 0.463182 47.7641 0.462183C47.7852 0.461021 47.7939 0.459825 47.7893 0.458748C47.7846 0.457671 47.7668 0.456764 47.738 0.456144C47.6557 0.45437 47.5908 0.452111 47.5463 0.449467C47.5289 0.448741 47.5201 0.447849 47.5207 0.44687C47.5213 0.44589 47.5313 0.444851 47.5498 0.443842C47.567 0.442785 47.5728 0.441712 47.5666 0.440763C47.5603 0.439814 47.5423 0.439033 47.5148 0.43852C47.4466 0.436672 47.3723 0.43499 47.2923 0.433484C47.1222 0.430227 46.9164 0.42818 46.6872 0.427466C46.6616 0.427668 46.6408 0.426754 46.6109 0.426989C46.446 0.427111 46.2988 0.42591 46.1873 0.423531C46.0522 0.421684 45.9083 0.420337 45.7646 0.418666C45.5549 0.416715 45.3661 0.413886 45.2036 0.410258C44.9993 0.410138 44.9041 0.405826 44.7391 0.404107C44.5881 0.402246 44.4471 0.400005 44.3176 0.397403C44.1071 0.393565 43.8965 0.389943 43.6904 0.385854C43.493 0.38291 43.3154 0.379287 43.1607 0.375048C43.1022 0.373246 42.9783 0.373895 42.9461 0.371027C42.9138 0.368158 42.8247 0.367565 42.7576 0.366047L42.5431 0.361809C42.5068 0.360949 42.4659 0.360224 42.4209 0.359646C42.2137 0.357396 42.0847 0.352704 41.8947 0.350104L41.8733 0.350272C41.5528 0.342005 41.1728 0.33542 40.7445 0.33071C40.5001 0.326707 40.225 0.324021 39.9634 0.320261C39.9098 0.317452 39.7473 0.31862 39.6766 0.315837C39.606 0.313054 39.4698 0.313047 39.3684 0.311689C39.2671 0.310331 39.1703 0.308507 39.0603 0.307432C38.9649 0.306465 38.8884 0.304772 38.8377 0.302505C38.7172 0.298389 38.5622 0.295125 38.3797 0.292858C38.139 0.289688 37.9158 0.285734 37.6659 0.283603C37.6788 0.281614 37.6715 0.279739 37.6448 0.27817C37.618 0.276601 37.5729 0.275396 37.5139 0.274677C37.2521 0.271242 37.0207 0.266814 36.7545 0.26352L36.6826 0.262792L35.8837 0.25356C35.6681 0.251161 35.461 0.248695 35.2412 0.246222C35.1513 0.246927 35.1615 0.244264 35.1019 0.244193C35.08 0.245334 35.0584 0.245718 35.0335 0.24473L35.0345 0.243107L34.1262 0.231826C33.7738 0.226706 33.3979 0.222459 33.0017 0.219121C32.909 0.218031 32.8243 0.216639 32.7488 0.214969C32.6766 0.213911 32.6004 0.212999 32.5206 0.212238C32.4112 0.211551 32.3052 0.210695 32.2029 0.209671C31.9368 0.206377 31.6531 0.203867 31.3566 0.201349C31.0602 0.19883 30.8407 0.195816 30.5783 0.193246C30.4006 0.191519 30.2228 0.190008 30.0362 0.18878C29.9472 0.188187 29.8319 0.188661 29.7385 0.188318C29.645 0.187974 29.6154 0.187668 29.6075 0.186654C29.5795 0.183752 29.4727 0.184375 29.3922 0.183822C29.2354 0.182685 29.2094 0.183319 29.1376 0.189372L29.3182 0.193338C29.3617 0.194469 29.4198 0.195174 29.4867 0.195384C29.5537 0.195593 29.6274 0.195301 29.7006 0.194535C29.7296 0.194184 29.7593 0.193973 29.7878 0.193915C29.8163 0.193858 29.8432 0.193954 29.8668 0.1942C30.057 0.196475 30.2427 0.199109 30.4242 0.20156L30.4493 0.202224L30.4245 0.208017C30.3975 0.208339 30.3701 0.208554 30.3432 0.208654L29.4016 0.203125C29.1852 0.201916 28.9554 0.201782 28.7433 0.200539C28.5312 0.199297 28.4166 0.198689 28.2511 0.197943C28.1806 0.197757 28.1081 0.197715 28.0341 0.197816C28.0356 0.198413 28.0352 0.199028 28.0329 0.199654C28.0323 0.200628 28.0315 0.201926 27.997 0.202627C27.9579 0.203713 27.9088 0.204483 27.8595 0.204783C27.8141 0.204853 27.771 0.204718 27.732 0.204384C27.5423 0.202986 27.3141 0.203888 27.0962 0.206897L27.0433 0.202898C26.7417 0.20182 26.4359 0.200667 26.1217 0.199365C26.0582 0.199232 25.9896 0.199513 25.9211 0.200185C25.8484 0.200756 25.7748 0.202732 25.6977 0.203445C25.6233 0.203767 25.5504 0.20387 25.4804 0.20375C25.4947 0.204787 25.5157 0.20571 25.5426 0.206492C25.5705 0.206951 25.5889 0.207694 25.5952 0.208612C25.6015 0.20953 25.5954 0.210576 25.5777 0.211598C25.5469 0.213348 25.5287 0.215104 25.5751 0.215817C25.6169 0.216706 25.6438 0.217993 25.6527 0.219525C25.6616 0.221058 25.652 0.222772 25.6251 0.224467C25.6121 0.225484 25.6015 0.226502 25.5935 0.227514L25.5721 0.227682C25.4892 0.230916 25.3529 0.231016 25.2451 0.233262C25.1969 0.233742 25.1489 0.233816 25.1087 0.23347C25.0025 0.23312 24.9008 0.232411 24.7902 0.232202C24.7375 0.232087 24.6809 0.232274 24.6239 0.232754C24.5426 0.233391 24.534 0.233458 24.4673 0.238072C24.5353 0.238662 24.5853 0.239953 24.609 0.241729C24.6328 0.243504 24.6287 0.245654 24.5975 0.247815C24.5181 0.252422 24.4342 0.257278 24.1653 0.258419C24.2466 0.259425 24.3241 0.260578 24.3973 0.261873C24.4188 0.26221 24.4335 0.262755 24.4395 0.263435C24.4456 0.264116 24.4426 0.264899 24.431 0.265681C24.4194 0.266462 24.3997 0.267205 24.3747 0.267809C24.3496 0.268413 24.3203 0.26885 24.2907 0.269061C24.1442 0.270648 23.9965 0.271211 23.864 0.270687C23.7538 0.269937 23.6566 0.268762 23.5296 0.267497L23.3671 0.268772C23.3667 0.269421 23.3407 0.270055 23.3448 0.270455C23.3681 0.274039 23.3957 0.27759 23.4231 0.281466C23.3455 0.282631 23.2754 0.284274 23.2207 0.286207C23.1661 0.28814 23.1291 0.290284 23.1141 0.292394C23.1074 0.293009 23.1056 0.293612 23.109 0.294163C23.1123 0.294713 23.1206 0.295197 23.1334 0.29558C23.1709 0.296393 23.1977 0.297497 23.2116 0.298806C23.2256 0.300115 23.2264 0.301594 23.2139 0.303129L23.0705 0.307806C22.7007 0.308458 22.3426 0.307983 22.0029 0.306388L21.6974 0.304694C21.6541 0.305895 21.6621 0.306693 21.696 0.307074C21.7298 0.307454 21.8274 0.30798 21.8952 0.308417C21.9543 0.308688 22.0046 0.309404 22.0412 0.310493C22.0778 0.311583 22.0995 0.313009 22.1042 0.314635L21.973 0.320293C21.9722 0.321591 21.9711 0.32343 22.0261 0.323859C22.0627 0.324377 22.0873 0.325281 22.0959 0.326425C22.1044 0.327568 22.0965 0.328885 22.0734 0.330163C22.066 0.331181 22.0654 0.33217 22.0716 0.333083C22.1519 0.33396 22.2323 0.334728 22.304 0.33578C22.3376 0.336228 22.3646 0.336903 22.3832 0.337761C22.4018 0.338618 22.4115 0.339637 22.4116 0.340749C22.4095 0.341811 22.3977 0.342926 22.377 0.344004C22.3564 0.345082 22.3276 0.346093 22.2929 0.346955C22.1716 0.347236 22.0666 0.346201 22.0009 0.344079C21.9802 0.342725 21.9417 0.341712 21.8903 0.341173C21.839 0.340634 21.7773 0.340595 21.7133 0.341061C21.64 0.341603 21.57 0.341462 21.5158 0.340663C21.4617 0.339864 21.427 0.33846 21.418 0.336704C21.3457 0.336626 21.2819 0.33648 21.218 0.336551C21.1424 0.33669 21.0734 0.336263 21.0187 0.335316C20.9295 0.33414 20.8313 0.33332 20.7264 0.332873C20.4251 0.331361 20.1239 0.329742 19.8358 0.327481C19.7595 0.326896 19.6964 0.325777 19.62 0.325407C19.5436 0.325038 19.4892 0.323419 19.3864 0.324549C19.3671 0.324692 19.3482 0.324719 19.3313 0.324627C19.3144 0.324536 19.2998 0.324329 19.2888 0.324023C19.1323 0.320743 18.9412 0.318583 18.7265 0.31767C18.4386 0.315085 18.1377 0.312925 17.8499 0.310231C17.7664 0.309227 17.6889 0.307999 17.618 0.306561C17.5636 0.305575 17.5058 0.304698 17.4451 0.303935C17.3986 0.30333 17.3518 0.303267 17.3702 0.301077C17.3886 0.298888 17.3115 0.2996 17.269 0.299611C17.1242 0.29931 16.9746 0.299367 16.8219 0.299782C16.6704 0.30038 16.5258 0.30016 16.3966 0.299136C16.3034 0.29836 16.2107 0.296827 16.0775 0.298733C16.0768 0.299923 16.076 0.301113 16.0964 0.302568C15.9844 0.304883 15.8607 0.306602 15.7357 0.307582C15.6108 0.308563 15.4881 0.308777 15.3778 0.308206L15.2003 0.312936C15.1603 0.313299 15.1204 0.313456 15.0832 0.313397C15.0459 0.313337 15.0119 0.313064 14.9834 0.312592C14.9612 0.312275 14.9325 0.312229 14.9026 0.312463C14.8727 0.312697 14.8437 0.313196 14.8208 0.313868C14.7875 0.31468 14.7487 0.315279 14.7091 0.315589C14.6695 0.3159 14.631 0.315908 14.5984 0.315613C14.493 0.315264 14.3767 0.315731 14.2613 0.316967C14.2279 0.318035 14.2044 0.31925 14.1939 0.320462C14.1833 0.321673 14.186 0.322828 14.2017 0.323785C14.2265 0.325444 14.236 0.327337 14.2296 0.329348C14.2233 0.33136 14.2012 0.333448 14.1647 0.335486C14.1449 0.336764 14.1344 0.338055 14.1336 0.339282C14.1328 0.340509 14.1419 0.341646 14.1603 0.342625C14.2257 0.346956 14.1949 0.348705 14.0346 0.353192C14.0084 0.353946 13.9781 0.354591 13.9455 0.355088C13.913 0.355584 13.8789 0.35592 13.8455 0.356075C13.7677 0.356288 13.692 0.356268 13.6199 0.356015C13.5771 0.356351 13.5394 0.355355 13.4927 0.355183C13.2591 0.354325 13.2153 0.356283 13.1191 0.360483L13.0491 0.363508C12.9364 0.365396 12.8167 0.366702 12.6985 0.367332C12.5803 0.367961 12.4667 0.367898 12.3657 0.367147C12.3259 0.366768 12.2781 0.366804 12.2294 0.367248C12.0719 0.368519 11.9164 0.368932 11.7732 0.36846C11.6842 0.36811 11.5847 0.368516 11.4866 0.369629C11.3885 0.370743 11.2959 0.372516 11.2201 0.374736C11.152 0.376738 11.0677 0.378303 10.979 0.379212C10.8763 0.380018 10.8581 0.381991 10.9036 0.384109C10.9491 0.386228 11.0282 0.38916 11.099 0.391618C11.1237 0.39246 11.1364 0.393553 11.1357 0.394775C11.1349 0.395998 11.1207 0.397301 11.0947 0.398541C11.071 0.400871 11.0581 0.403178 11.0564 0.405408C11.0567 0.406344 11.049 0.407337 11.0338 0.40832C11.0186 0.409302 10.9962 0.410251 10.9683 0.411103C10.9403 0.411955 10.9074 0.41269 10.8717 0.413258C10.836 0.413826 10.7984 0.414215 10.7614 0.414397C10.6031 0.415639 10.4491 0.416847 10.2913 0.417332C10.2247 0.417638 10.1571 0.418168 10.0903 0.418909C9.95073 0.421001 9.80514 0.422436 9.66195 0.423131C9.59426 0.423405 9.52484 0.424375 9.46873 0.425831C9.29583 0.429537 9.1334 0.433627 8.9844 0.438028C8.94669 0.439478 8.90003 0.440794 8.84734 0.441893C8.79465 0.442992 8.73707 0.44385 8.67821 0.444413C8.63115 0.444782 8.58771 0.4462 8.54888 0.447042C8.51205 0.449527 8.49784 0.452026 8.5076 0.454303C8.51737 0.45658 8.55078 0.458561 8.60469 0.46006C8.65476 0.461713 8.70047 0.463507 8.74192 0.465335C8.79434 0.467002 8.85961 0.468343 8.9353 0.469307C9.02331 0.470803 9.08269 0.473151 9.10568 0.476044C8.83618 0.478158 8.56962 0.482403 8.35907 0.478673L8.17445 0.481198C8.17338 0.482928 8.17245 0.484443 8.17158 0.485849C8.19959 0.488705 8.19759 0.491934 8.16577 0.49526C8.14498 0.496815 8.13911 0.49836 8.14872 0.49974C8.15834 0.50112 8.1831 0.502286 8.22052 0.503119C8.43341 0.509952 8.68955 0.515693 8.88513 0.522986C8.9494 0.524631 9.02779 0.525872 9.117 0.526656C9.20142 0.527824 9.18725 0.530088 9.07543 0.531934C9.01317 0.53286 8.95013 0.533714 8.88654 0.534493C8.63254 0.53218 8.56076 0.524347 8.26338 0.523343L8.08839 0.530959C8.05157 0.530735 8.0162 0.530437 7.98251 0.530068L7.51523 0.52157C7.47575 0.520983 7.44723 0.520046 7.43291 0.518864C7.41859 0.517682 7.41904 0.516304 7.43421 0.514886C7.44593 0.513082 7.44701 0.51133 7.43741 0.509694C7.4316 0.508557 7.44465 0.507255 7.47371 0.506072C7.53922 0.503405 7.47605 0.502286 7.43849 0.501074C7.4283 0.50089 7.41611 0.500776 7.40262 0.500739C7.38912 0.500702 7.37459 0.500743 7.35986 0.500858C7.34514 0.500974 7.33052 0.501162 7.31685 0.501412C7.30317 0.501662 7.29072 0.501969 7.28021 0.502316C7.19365 0.504609 7.11544 0.507161 7.02869 0.509779C7.06472 0.513479 6.98097 0.518119 7.04681 0.521801C7.053 0.522466 7.05331 0.523205 7.04771 0.523971C7.04212 0.524736 7.03073 0.525514 7.01425 0.526254C6.97175 0.528167 6.94639 0.530192 6.94071 0.532127C6.93503 0.534062 6.94924 0.535836 6.98191 0.537273L6.98118 0.538462C6.86447 0.541316 6.87497 0.545001 6.81736 0.548683L6.70988 0.550387C6.44346 0.554415 6.44352 0.554307 6.24059 0.552024C6.18825 0.554049 6.2388 0.554944 6.2767 0.555616L6.59226 0.561644C6.79839 0.565624 7.01336 0.569104 7.24984 0.572201C7.48632 0.575297 7.74292 0.58028 7.98302 0.584425C7.99495 0.584679 8.00337 0.585029 8.00755 0.585446C8.01174 0.585862 8.01157 0.586333 8.00708 0.58682C7.99471 0.58727 7.97938 0.58767 7.96224 0.587991C7.94509 0.588312 7.92657 0.588545 7.90802 0.588673C7.82246 0.589345 7.73725 0.589475 7.64762 0.589855L7.48124 0.590407L7.42023 0.592716C7.38106 0.5941 7.3501 0.595957 7.30278 0.596759C7.26422 0.597324 7.22373 0.597641 7.18553 0.597676C7.14732 0.59771 7.1128 0.597462 7.08556 0.596956C7.00976 0.595614 6.94258 0.594095 6.87113 0.592611C6.79967 0.591126 6.76211 0.589914 6.69887 0.588903C6.56779 0.587416 6.44238 0.585705 6.32317 0.583777C6.22766 0.581088 6.14129 0.57817 6.06462 0.575041C6.01443 0.573605 5.96856 0.572027 5.87051 0.572259C5.82168 0.57287 5.77738 0.573873 5.74546 0.575089C5.71354 0.576305 5.69606 0.577656 5.69613 0.578901C5.69681 0.579884 5.7075 0.580763 5.72718 0.581457C5.74687 0.58215 5.77489 0.582634 5.80862 0.582863C5.90089 0.583968 5.9843 0.585409 6.05714 0.587156C6.15667 0.589996 6.28418 0.59207 6.43225 0.593255C6.48318 0.593502 6.5122 0.594781 6.55431 0.595527C6.59642 0.596273 6.62977 0.597411 6.6809 0.597333C6.83838 0.597389 6.90041 0.600347 6.98409 0.602704C7.01172 0.603654 7.02589 0.604884 7.02504 0.606258C7.0242 0.607632 7.00836 0.609098 6.97928 0.610492C6.92281 0.613285 6.85695 0.616003 6.78272 0.618601C6.74486 0.619865 6.69874 0.620963 6.64799 0.621809C6.59724 0.622656 6.54324 0.623228 6.49022 0.62348C6.4515 0.625148 6.42679 0.626923 6.41829 0.628644C6.4098 0.630365 6.4178 0.631977 6.44157 0.633334C6.50347 0.636508 6.55687 0.639642 6.72698 0.639922C6.80641 0.640174 6.87936 0.640801 6.94294 0.64178C7.08523 0.643674 7.25622 0.644369 7.43977 0.643802C7.48724 0.643661 7.53307 0.6437 7.57593 0.643918C7.88146 0.645503 8.16961 0.647656 8.45762 0.650025C8.61009 0.651304 8.76235 0.652909 8.92358 0.653797C9.30109 0.656001 9.63483 0.660165 9.99477 0.663261C10.1833 0.664887 10.3462 0.667589 10.4752 0.671225C10.4988 0.672248 10.5181 0.673357 10.5327 0.674541C10.4285 0.676217 10.3177 0.677259 10.2109 0.677569C10.1041 0.677879 10.0049 0.677446 9.92286 0.676312C9.88034 0.675124 9.82166 0.674395 9.75337 0.674209C9.68508 0.674022 9.60987 0.674385 9.53612 0.675256L9.72595 0.678072C9.85262 0.67977 9.98369 0.681217 10.106 0.683056C10.3 0.686055 10.4766 0.689513 10.6793 0.692229C10.8426 0.694495 10.9841 0.697518 11.0995 0.701204C11.1827 0.703884 11.2813 0.706181 11.3932 0.708049C11.4734 0.70925 11.4734 0.70925 11.5091 0.713383C11.4569 0.7153 11.4017 0.715087 11.3509 0.714625C11.0408 0.713049 10.751 0.71041 10.4873 0.706761C10.3524 0.705318 10.2369 0.703125 10.1465 0.700285C10.1258 0.699263 10.0621 0.699009 10.0112 0.698763C9.85338 0.697582 9.70478 0.695974 9.56714 0.693958C9.37765 0.690998 9.16032 0.689068 8.92359 0.688243C8.87166 0.689619 8.92252 0.689974 8.92212 0.690623C9.09484 0.693573 9.26322 0.696666 9.44028 0.699475C9.48831 0.700324 9.54057 0.701031 9.59649 0.701586C9.80795 0.703068 9.97404 0.706508 10.0715 0.711423C10.0705 0.712937 10.1468 0.713523 10.1758 0.714802C10.1885 0.715785 10.195 0.716857 10.1951 0.717988C10.1342 0.720188 10.0792 0.719651 10.0368 0.71923C9.91549 0.717698 9.80003 0.715944 9.69102 0.713977C9.58977 0.71213 9.47462 0.710753 9.34871 0.709881C9.2554 0.709322 9.1796 0.707979 9.08643 0.707203C9.03479 0.707019 8.9805 0.707012 8.92467 0.70718C8.97466 0.709642 9.04901 0.711594 9.14252 0.712899C9.20949 0.714741 9.29812 0.715983 9.29625 0.719012C9.25261 0.720754 9.2145 0.720407 9.18503 0.719885C9.12156 0.719256 9.0609 0.71851 9.00335 0.71765C8.88143 0.715807 8.74651 0.714445 8.60143 0.713592C8.52544 0.713054 8.45457 0.712275 8.39002 0.711268C8.24223 0.709305 8.10327 0.706843 7.96818 0.704997C7.68925 0.701696 7.44075 0.697402 7.17479 0.693783C7.1157 0.692955 7.06542 0.691627 6.97993 0.69219C6.89445 0.692754 6.8901 0.692895 6.87687 0.693645C6.84822 0.69483 6.83523 0.696127 6.84058 0.697267C6.85184 0.698394 6.87998 0.699242 6.91998 0.699658C7.15437 0.703624 7.37345 0.70809 7.57584 0.713027C7.66798 0.714533 7.74572 0.716501 7.80637 0.718861C7.85528 0.720558 7.91607 0.721967 7.98684 0.723043C8.08828 0.724933 8.19522 0.726645 8.30722 0.728172C8.3592 0.72891 8.40137 0.729979 8.43125 0.731316C8.46114 0.732653 8.47812 0.734231 8.4812 0.735957L8.31699 0.739936C8.29392 0.739967 8.27119 0.739966 8.24887 0.739932L7.10903 0.72444L6.99487 0.723183C6.86773 0.722243 6.83338 0.722728 6.68553 0.727763C6.9508 0.731959 7.14499 0.738378 7.24874 0.74638C7.21317 0.746772 7.17724 0.747054 7.1418 0.747219C6.91717 0.746612 6.70975 0.744968 6.52752 0.742351C6.41757 0.741168 6.30321 0.740236 6.18891 0.739195C6.2081 0.742596 6.33984 0.742962 6.41978 0.744488C6.61341 0.747563 6.77876 0.751561 6.91054 0.756354C6.95528 0.758156 7.0149 0.759619 7.08666 0.760677C7.15944 0.761524 7.21707 0.762921 7.25453 0.764747C7.29198 0.766573 7.30812 0.768773 7.30155 0.771155C7.29871 0.773343 7.30454 0.775461 7.31894 0.777477C7.26723 0.779614 7.19247 0.781408 7.1087 0.782521C7.02493 0.783634 6.93791 0.78399 6.86396 0.783523C6.70387 0.78301 6.53493 0.783105 6.36146 0.783806C6.27497 0.784169 6.19237 0.784047 6.11902 0.783447C6.0544 0.782904 5.97756 0.783022 5.90023 0.783784C5.8229 0.784546 5.74932 0.785911 5.69071 0.787669C5.61277 0.789788 5.53904 0.791981 5.46532 0.794174C5.39159 0.796367 5.30471 0.799202 5.21789 0.801928C5.15281 0.801838 5.09025 0.801572 5.03107 0.801134C4.98614 0.800551 4.9313 0.800393 4.87305 0.800678C4.81479 0.800964 4.75553 0.801681 4.70227 0.802744C4.72246 0.804524 4.74699 0.806161 4.77126 0.808231C4.71633 0.810092 4.67338 0.812121 4.64502 0.814194C4.61666 0.816267 4.60348 0.818342 4.60631 0.82029C4.60524 0.822021 4.54421 0.82433 4.51741 0.82637C4.48722 0.828058 4.47503 0.829793 4.48243 0.831349C4.48982 0.832904 4.51647 0.834207 4.55886 0.835087C4.61023 0.836441 4.64949 0.838097 4.67503 0.839988C4.68399 0.840503 4.68694 0.841113 4.68363 0.841765C4.68031 0.842417 4.67082 0.843088 4.65603 0.843718C4.64125 0.844348 4.62163 0.844917 4.59898 0.845371C4.57633 0.845826 4.55137 0.846153 4.52638 0.846322C4.45025 0.846747 4.37645 0.846777 4.30921 0.846411C4.19322 0.845814 4.083 0.845064 3.97855 0.844161C3.86278 0.843218 3.72912 0.843227 3.59114 0.844187C3.46709 0.84516 3.35586 0.846033 3.28134 0.849524C3.20681 0.853015 3.11804 0.851989 3.03576 0.85425C3.06213 0.857296 3.12225 0.859832 3.21003 0.861602C3.26863 0.862507 3.31506 0.863806 3.34632 0.865414C3.37758 0.867023 3.393 0.868905 3.39157 0.870942L3.14513 0.877074C2.96072 0.879274 2.88225 0.875369 2.69509 0.875115L2.86661 0.880012C2.86896 0.88035 2.86873 0.880716 2.86594 0.881094C2.81969 0.887055 2.785 0.88808 2.57974 0.889583L2.46424 0.890489L2.28504 0.891142C2.25227 0.89213 2.22758 0.893255 2.21343 0.894405C2.19927 0.895555 2.19614 0.89669 2.20437 0.897695C2.22222 0.899427 2.221 0.901399 2.20083 0.903429C2.17799 0.904678 2.17065 0.905968 2.18008 0.907074C2.1895 0.908179 2.2151 0.909032 2.25243 0.909482C2.28198 0.909896 2.2767 0.911553 2.2888 0.912642C2.29918 0.91408 2.32249 0.915337 2.35714 0.916328C2.39179 0.91732 2.43695 0.918022 2.48958 0.918386C2.6432 0.919794 2.78476 0.921716 2.91175 0.924116L2.88608 0.924317C3.02795 0.924752 3.15704 0.925928 3.26708 0.927787C3.37649 0.929835 3.52495 0.930715 3.64306 0.93248C3.74187 0.933338 3.81087 0.935345 3.83543 0.938075C3.85936 0.940686 3.98662 0.94141 4.08421 0.941936C4.14213 0.942224 4.19741 0.942654 4.24945 0.943223C4.31722 0.944439 4.40713 0.944836 4.50418 0.944346C4.53335 0.944189 4.56118 0.94423 4.58499 0.944465C4.81807 0.946189 5.0512 0.947804 5.27987 0.949778C5.33151 0.950481 5.39488 0.950693 5.46254 0.95039C5.49104 0.950249 5.51773 0.95034 5.53901 0.950651C5.89381 0.955187 6.30995 0.956874 6.65606 0.961693C6.69732 0.962425 6.74427 0.962963 6.79556 0.96329C6.91244 0.963672 7.00868 0.965147 7.06968 0.96749C7.10264 0.968742 7.14786 0.969703 7.20246 0.970313C7.25706 0.970922 7.31983 0.971167 7.38677 0.97103C7.49696 0.971066 7.59496 0.971934 7.67044 0.973541C7.82143 0.975842 7.98243 0.97778 8.15217 0.979342C8.20459 0.97973 8.2488 0.980479 8.28137 0.98153C8.31394 0.982582 8.33399 0.983907 8.33998 0.985403C8.28772 0.987321 8.241 0.987149 8.19882 0.986511C8.02925 0.985366 7.8596 0.984328 7.69444 0.982933C7.54435 0.982176 7.40248 0.980981 7.27094 0.979367C7.20643 0.978387 7.1208 0.978285 7.03272 0.979083C6.92446 0.980126 6.81796 0.980116 6.73474 0.979053C6.67254 0.978372 6.60582 0.977886 6.53555 0.977602C6.48952 0.977647 6.4408 0.978029 6.39439 0.978709C6.37578 0.97902 6.35607 0.979241 6.33651 0.979357C6.31696 0.979473 6.29801 0.979482 6.28084 0.979384C6.26367 0.979285 6.24867 0.979082 6.23682 0.978786C6.22496 0.97849 6.21651 0.978108 6.21198 0.977664C6.16325 0.973849 6.01413 0.97405 5.89121 0.973184C5.68467 0.976743 5.56403 0.972199 5.38015 0.973534C5.36579 0.973601 5.35198 0.97359 5.3396 0.973502C5.32721 0.973414 5.3165 0.973251 5.30809 0.973023C4.98772 0.967894 4.59751 0.965573 4.25521 0.961477C4.21757 0.961003 4.17192 0.960876 4.12347 0.961112C3.80655 0.962707 3.51606 0.961148 3.30881 0.956739C3.28327 0.956273 3.2532 0.955962 3.21998 0.955821C3.06293 0.956144 2.91741 0.95544 2.79554 0.953769C2.60083 0.95196 2.41475 0.949975 2.21563 0.948416C2.07695 0.947649 1.96064 0.945814 1.87834 0.943097C1.87881 0.942339 1.81484 0.942518 1.76825 0.94213C1.73322 0.943697 1.70255 0.945122 1.66766 0.946472C1.63391 0.948237 1.58784 0.949903 1.53259 0.951358C1.47734 0.952813 1.4142 0.954023 1.34744 0.954905C1.23622 0.955778 1.21328 0.958433 1.28032 0.960168C1.44971 0.965381 1.67581 0.969087 1.94199 0.971016C2.16203 0.973164 2.38636 0.97528 2.61081 0.977178C2.74215 0.978193 2.88217 0.978925 3.00917 0.980081C3.05299 0.980262 3.09851 0.980336 3.14526 0.980305C3.20311 0.98016 3.25793 0.980314 3.30675 0.98076C3.46021 0.982912 3.6368 0.984151 3.82811 0.98442C3.89712 0.984752 3.96238 0.985286 4.02295 0.986013C4.16551 0.987892 4.32365 0.989149 4.49317 0.989751C4.59826 0.990186 4.69894 0.990872 4.79417 0.991803C4.82806 0.992075 4.85312 0.992847 4.88721 0.992795C5.19013 0.99171 5.37869 0.996582 5.64198 0.997638C5.7685 0.998465 5.88752 0.999658 5.99737 1.0012C6.21562 1.00337 6.44184 1.00519 6.67514 1.00665C6.98488 1.00831 7.2638 1.01161 7.5561 1.01394C7.61384 1.0144 7.66896 1.01497 7.72107 1.01566C7.97324 1.01931 8.25349 1.02188 8.55498 1.02333C8.62287 1.02378 8.68171 1.02465 8.72783 1.02588C8.77395 1.02711 8.80635 1.02868 8.82301 1.03048C8.82816 1.03166 8.81521 1.03299 8.78665 1.03421C8.7418 1.0357 8.69243 1.03709 8.63934 1.03838L6.97285 1.02778C6.90259 1.02739 6.83468 1.02688 6.76946 1.02625C6.57774 1.02438 6.37827 1.02286 6.17204 1.02168C5.96844 1.02048 5.77814 1.01842 5.58336 1.01672C5.52595 1.01623 5.46651 1.01583 5.40531 1.01553C4.98998 1.01386 4.589 1.01136 4.20517 1.00805C4.04435 1.00651 3.86595 1.00587 3.70072 1.00458C3.53549 1.00329 3.31117 1.00118 3.11646 0.999369L2.5157 0.993318C2.39719 0.992203 2.28309 0.990837 2.16892 0.98958C1.99481 0.99579 1.93866 0.997092 1.73767 0.998561C1.6685 0.999153 1.60052 0.999239 1.5417 0.998807C1.36016 0.996356 1.11739 0.996539 0.944141 0.994454C0.837927 0.993559 0.752323 0.991816 0.696094 0.989403C0.646606 0.987455 0.587769 0.985717 0.520494 0.984214C0.296313 0.988772 0.259759 0.992826 0.398321 0.995937C0.436154 0.996717 0.49123 0.997146 0.516095 0.998243C0.530232 0.9989 0.551344 0.999407 0.577749 0.999723C0.604153 1.00004 0.635119 1.00016 0.66822 1.00006C0.771691 0.999987 0.865236 1.00066 0.939467 1.00203C1.00829 1.00353 1.09719 1.00439 1.1976 1.00452C1.2746 1.00392 1.32841 1.0064 1.3873 1.00755C1.44619 1.00871 1.49211 1.01018 1.59457 1.0097C1.61344 1.00958 1.63166 1.00959 1.64782 1.0097C1.66398 1.00982 1.67766 1.01004 1.68782 1.01036C1.78647 1.01233 1.90974 1.01346 2.04762 1.01368C2.25627 1.01462 2.44749 1.0165 2.61463 1.01924C2.7134 1.02116 2.79383 1.02362 2.8528 1.02652C2.86824 1.02745 2.89417 1.02817 2.92812 1.02862C3.10312 1.02989 3.2988 1.03005 3.50255 1.02906C3.57963 1.02862 3.6555 1.02843 3.72854 1.02847C3.87917 1.02846 4.02213 1.02905 4.15318 1.0302C4.34272 1.03208 4.54252 1.0335 4.75081 1.03445C4.87905 1.0351 5.00096 1.03609 5.11509 1.0374C5.23281 1.03866 5.361 1.03947 5.49676 1.03979C5.63095 1.04029 5.74378 1.04191 5.82167 1.04445C5.84569 1.04564 5.86345 1.04695 5.87461 1.04834C5.66522 1.05042 5.45832 1.05047 5.29556 1.04847C5.23193 1.04811 5.18133 1.04732 5.10841 1.04822L5.10874 1.04768C5.09721 1.04721 5.07783 1.04693 5.0543 1.0469C5.03077 1.04686 5.00473 1.04708 4.98115 1.0475C4.97988 1.04955 4.97868 1.0515 4.97781 1.0529C5.10411 1.05392 5.22559 1.05516 5.34163 1.05662C5.43869 1.05801 5.58901 1.05586 5.66855 1.05803C5.84307 1.05806 5.93892 1.0614 6.09165 1.06225C6.24438 1.0631 6.41924 1.06259 6.57197 1.06343C6.70427 1.06438 6.83148 1.06558 6.9529 1.06701C6.99381 1.06772 7.04281 1.06814 7.09687 1.06825C7.17378 1.0682 7.24257 1.06875 7.29536 1.06984C7.34814 1.07093 7.38278 1.07252 7.39531 1.07441C7.36891 1.0758 7.33376 1.07759 7.29433 1.0794C7.341 1.08169 7.42064 1.08325 7.52145 1.08386L7.66102 1.08535C7.69832 1.08568 7.72451 1.08643 7.73417 1.08746C7.74384 1.08848 7.73625 1.0897 7.71296 1.09086C7.41672 1.09491 7.40355 1.09555 7.22862 1.08928L6.96079 1.08869L6.96501 1.08877ZM10.5477 1.10544L10.5263 1.10561L10.5477 1.10544ZM46.0585 0.71497L46.0592 0.71378L46.0584 0.715078L46.1055 0.714709L46.105 0.715466L46.0585 0.71497ZM37.4568 1.15341C37.3897 1.15404 37.3226 1.15457 37.2557 1.15499C37.2387 1.15498 37.2233 1.15487 37.2109 1.15465C37.1984 1.15443 37.1892 1.15411 37.1841 1.15372C37.1849 1.15242 37.2236 1.1519 37.2578 1.15163C37.3012 1.15124 37.3441 1.15115 37.3821 1.15136C37.4202 1.15158 37.4519 1.15209 37.4741 1.15284L37.5077 1.15365L37.4568 1.15341ZM7.29145 0.532368C7.33276 0.532563 7.37118 0.532913 7.40575 0.533409C7.55742 0.535987 7.70031 0.538956 7.85626 0.5415C8.04752 0.545905 8.2754 0.549204 8.53136 0.551273C8.63157 0.552035 8.71178 0.553646 8.76263 0.555918C8.79356 0.557173 8.83641 0.558155 8.88856 0.558805L9.54681 0.56828C9.58566 0.569265 9.61784 0.570423 9.6426 0.571726C9.57843 0.57223 9.53566 0.572565 9.50999 0.572767C9.46035 0.572398 9.41972 0.57164 9.39215 0.57057C9.36471 0.568949 9.31066 0.567875 9.24075 0.56756C9.17048 0.567174 9.10257 0.566664 9.03736 0.566034C8.9147 0.564735 8.79217 0.563221 8.66959 0.561815C8.63804 0.557756 8.48891 0.557958 8.36599 0.557092L8.27302 0.555991C7.97522 0.551064 7.69434 0.545576 7.43175 0.539556C7.38064 0.538471 7.33845 0.537134 7.30649 0.535587C7.29663 0.534532 7.29736 0.533347 7.30863 0.532126L7.28725 0.532293L7.29145 0.532368ZM22.5432 0.32766C22.6186 0.328163 22.6983 0.328439 22.781 0.328485C22.8457 0.328333 22.9074 0.328466 22.9639 0.328881C23.28 0.331214 23.6141 0.33263 23.9617 0.333108C24.0074 0.333111 24.0504 0.333319 24.089 0.333724L24.3593 0.337201C24.4437 0.338476 24.4434 0.338909 24.3552 0.343799C24.2982 0.344347 24.241 0.344796 24.1841 0.345141C24.1499 0.34541 24.0943 0.345846 24.0864 0.344832C24.0245 0.341657 23.8839 0.3419 23.7693 0.341292C23.4384 0.339366 23.0945 0.337975 22.7592 0.336299C22.6881 0.335999 22.62 0.335524 22.5557 0.334882C22.5155 0.334564 22.4798 0.334043 22.4503 0.333341C22.4413 0.333209 22.4342 0.333017 22.4293 0.332776C22.4245 0.332536 22.4221 0.332253 22.4223 0.331946C22.4225 0.331639 22.4253 0.331315 22.4304 0.330996C22.4356 0.330677 22.443 0.330371 22.4523 0.330096C22.4847 0.329136 22.5212 0.32827 22.5603 0.327526L22.5432 0.32766ZM21.2378 1.15267L21.5547 1.15654C21.5927 1.15699 21.6219 1.15806 21.6644 1.15815C21.888 1.15935 22.0896 1.16167 22.2604 1.165C22.3181 1.16623 22.3884 1.16707 22.4675 1.16746C22.7094 1.1687 22.9328 1.17089 23.1318 1.17398C23.2626 1.17551 23.3826 1.17746 23.4901 1.17978C23.4975 1.18015 23.5012 1.18058 23.5009 1.18104C23.5006 1.18151 23.4964 1.182 23.4884 1.18249C23.4854 1.18281 23.4799 1.18314 23.4721 1.18345C23.4644 1.18375 23.4546 1.18403 23.4436 1.18426C23.4325 1.18449 23.4204 1.18467 23.408 1.18478C23.3957 1.18489 23.3834 1.18494 23.372 1.18491C23.2218 1.18509 23.0837 1.18429 22.969 1.18258C22.8633 1.18085 22.7471 1.17949 22.6224 1.17852C22.5039 1.1774 22.4333 1.17451 22.28 1.17464C22.2158 1.17454 22.1621 1.17382 22.128 1.1726C22.0579 1.17044 21.9515 1.16929 21.8277 1.16936C21.7542 1.16928 21.6855 1.16888 21.6241 1.16816C21.4764 1.1662 21.3373 1.16384 21.2025 1.16156C21.1597 1.16092 21.1129 1.16042 21.063 1.16007L20.3595 1.15483C20.1899 1.15368 20.0203 1.15265 19.8551 1.15125C19.7185 1.15045 19.5945 1.14903 19.4874 1.14703C19.3732 1.14492 19.2457 1.14325 19.1073 1.14205C18.8961 1.1394 18.6847 1.13708 18.4519 1.13481C18.3039 1.13328 18.1515 1.13189 17.9947 1.13076C17.9139 1.13051 17.8493 1.1294 17.8135 1.12766C17.7931 1.12631 17.7291 1.1266 17.6781 1.12635C17.4014 1.12613 17.1498 1.12421 16.9409 1.12072C16.9144 1.12023 16.8846 1.11985 16.8522 1.11959C16.6448 1.11756 16.4289 1.1157 16.23 1.11371C16.1781 1.11308 16.1302 1.1123 16.0867 1.11139C16.095 1.11069 16.1127 1.11002 16.1359 1.10951C16.1592 1.10901 16.1864 1.10871 16.2118 1.10868C16.4095 1.10848 16.5961 1.1092 16.7639 1.11081C17.0415 1.11387 17.3362 1.11621 17.6451 1.11778C17.8863 1.11867 18.0987 1.12112 18.2665 1.12496C18.3979 1.12789 18.5808 1.12912 18.7837 1.12844C18.8711 1.12802 18.9527 1.12832 19.0173 1.1293C19.0789 1.13035 19.1524 1.13098 19.2332 1.13116C19.4032 1.13165 19.5639 1.1327 19.7124 1.13429C19.8559 1.13617 19.9863 1.1387 20.1342 1.14056C20.282 1.14241 20.5106 1.14449 20.6922 1.14694C20.8737 1.14939 21.0556 1.1513 21.2378 1.15267ZM7.70232 1.08051C7.734 1.07746 7.80299 1.07606 7.87123 1.07584C8.11043 1.07426 8.33704 1.07484 8.51303 1.07748C8.60479 1.07963 8.73638 1.08048 8.88192 1.07986C9.05026 1.07939 9.2003 1.08054 9.30563 1.0831C9.33189 1.08363 9.35045 1.08437 9.35964 1.08526C9.35924 1.08591 9.3585 1.0871 9.35837 1.08732C9.34418 1.08773 9.32751 1.08807 9.30964 1.08833C9.29177 1.08858 9.27318 1.08873 9.2553 1.08877L8.50408 1.08509L8.3724 1.08461C8.12892 1.08439 7.90232 1.083 7.70232 1.08051ZM9.38081 1.04408C9.51957 1.03998 9.51949 1.04009 9.58372 1.03948C9.88991 1.03733 10.1853 1.03748 10.4349 1.03991C10.4902 1.04048 10.5349 1.04145 10.5651 1.04276C10.5823 1.04307 10.5918 1.04359 10.5914 1.04422C10.591 1.04485 10.5808 1.04553 10.563 1.04611L10.4549 1.0489C10.282 1.04884 10.113 1.04848 9.94896 1.04781C9.75786 1.04705 9.59282 1.04544 9.39791 1.04395L9.38081 1.04408ZM22.4225 0.350783C22.5625 0.344624 22.5624 0.344733 22.7498 0.344662C22.8804 0.344591 23.0048 0.345028 23.1193 0.345961C23.2591 0.347125 23.4032 0.348147 23.543 0.349203C23.5779 0.349311 23.6056 0.349789 23.6209 0.350545C23.6362 0.3513 23.6379 0.352279 23.6257 0.353291C23.6021 0.354285 23.5685 0.355138 23.5303 0.355712C23.492 0.356285 23.4515 0.356545 23.4151 0.35645L23.3389 0.355864C23.2455 0.355304 23.1479 0.354887 23.059 0.354077C23.0029 0.353201 22.9353 0.352765 22.8614 0.352803C22.7875 0.352841 22.7094 0.353352 22.6331 0.354296L22.4225 0.350783ZM9.76036 1.09127C9.79463 1.0903 9.83239 1.08943 9.87264 1.08867C10.0228 1.08694 10.1749 1.08663 10.2989 1.0878C10.3582 1.08819 10.4086 1.08941 10.4727 1.08902C10.5855 1.08876 10.6923 1.08909 10.7871 1.09C10.7871 1.09 10.8123 1.09055 10.8207 1.0907L10.8178 1.09546C10.7681 1.09607 10.7174 1.09647 10.668 1.09663C10.5065 1.09629 10.3494 1.09558 10.1923 1.09499C10.0351 1.09439 9.97986 1.09428 9.87806 1.09368C9.8345 1.09301 9.79507 1.09221 9.76036 1.09127ZM9.00021 0.488282L9.24738 0.48096C9.31717 0.480809 9.37954 0.481281 9.42502 0.482303C9.4705 0.483326 9.49657 0.484844 9.4993 0.486627C9.5125 0.48758 9.50883 0.48876 9.48907 0.489918C9.46931 0.491077 9.43498 0.492124 9.3933 0.492841C9.35206 0.493772 9.30645 0.49452 9.25926 0.495038C9.21207 0.495556 9.16433 0.495834 9.11899 0.495854L9.00021 0.488282ZM10.4849 0.551985C10.3441 0.552234 10.2135 0.551602 10.1029 0.550138C10.0366 0.5485 9.93949 0.547836 9.83161 0.548284C9.63425 0.549353 9.45321 0.54838 9.3267 0.545571C9.3267 0.545571 9.32749 0.544273 9.30657 0.543684C9.28565 0.543095 9.37929 0.543113 9.40068 0.542945C9.54933 0.543501 9.69785 0.544274 9.82499 0.545214C9.90293 0.546011 9.98681 0.546544 10.0752 0.546803C10.1972 0.547061 10.3103 0.547882 10.41 0.549236C10.41 0.549236 10.4479 0.549907 10.485 0.551877L10.4849 0.551985ZM22.4962 1.18306C22.4243 1.18418 22.3486 1.18492 22.2746 1.18523C22.2007 1.18553 22.1306 1.18538 22.0694 1.18479C22.0222 1.18442 21.9865 1.18357 21.968 1.18239C21.9494 1.18121 21.9491 1.17976 21.967 1.17828C22.0183 1.17787 22.0868 1.17734 22.1253 1.17704C22.2479 1.17833 22.3489 1.18023 22.4962 1.18306ZM35.1149 1.15413C35.0572 1.15504 34.9959 1.15556 34.9379 1.15563C34.8799 1.1557 34.8276 1.15533 34.7869 1.15455C34.7658 1.15418 34.788 1.15271 34.7886 1.15174C34.7872 1.1515 34.7884 1.15124 34.7922 1.15097C34.796 1.15071 34.8022 1.15046 34.8102 1.15024C34.8182 1.15002 34.8276 1.14985 34.8375 1.14974C34.8474 1.14963 34.8575 1.14959 34.8666 1.14962C34.9249 1.14956 34.9781 1.14991 35.0215 1.15062C35.0649 1.15133 35.0971 1.15239 35.1152 1.1537L35.1149 1.15413ZM36.008 1.14185C35.9962 1.14261 35.9754 1.14331 35.9492 1.14383C35.9231 1.14435 35.8935 1.14466 35.8658 1.14468C35.819 1.14426 35.7777 1.1436 35.7435 1.14274C35.7057 1.14196 35.7453 1.13982 35.8055 1.13891C35.8308 1.13856 35.8571 1.13836 35.8823 1.13831C35.9074 1.13826 35.9308 1.13837 35.9505 1.13864C35.9701 1.1389 35.9856 1.13931 35.9956 1.13983C36.0056 1.14035 36.0099 1.14096 36.0081 1.14163L36.008 1.14185ZM11.8773 1.10319C11.7442 1.10498 11.6558 1.10331 11.5493 1.1035C11.4427 1.10369 11.4173 1.10357 11.4397 1.10178C11.4621 1.09999 11.5295 1.10107 11.5766 1.1007C11.64 1.10022 11.7018 1.1002 11.7549 1.10064C11.808 1.10108 11.8504 1.10196 11.8773 1.10319ZM39.0684 0.84592C39.0022 0.845958 38.9381 0.845812 38.8771 0.845484C38.8706 0.845126 38.8673 0.844713 38.8676 0.844267C38.8679 0.843821 38.8717 0.843352 38.8788 0.842888C38.8788 0.842888 38.9263 0.841761 38.9519 0.84156C39.046 0.84093 39.0404 0.843127 39.0684 0.84592ZM49.2831 0.656514C49.3352 0.654921 49.3614 0.653746 49.4001 0.65312C49.4174 0.652941 49.4348 0.652859 49.451 0.652881C49.4672 0.652903 49.4818 0.653028 49.4937 0.653247C49.5061 0.65398 49.5055 0.654907 49.4921 0.655843C49.4921 0.655843 49.4402 0.657219 49.4232 0.657137C49.3739 0.65709 49.3269 0.656881 49.2831 0.656514ZM9.76778 1.09993C9.66939 1.1007 9.57527 1.10144 9.52153 1.09885C9.6752 1.09818 9.6752 1.09818 9.76778 1.09993ZM11.3244 1.09547C11.2163 1.09815 11.1611 1.09793 11.119 1.09708C11.1102 1.09688 11.105 1.09659 11.1045 1.09624C11.1039 1.0959 11.1078 1.09552 11.1157 1.09516C11.1237 1.09481 11.1351 1.0945 11.1483 1.09428C11.1616 1.09406 11.1759 1.09394 11.1891 1.09395C11.2373 1.09432 11.2826 1.09483 11.3244 1.09547ZM16.0427 1.14123C16.0424 1.14177 16.042 1.14242 16.0163 1.14262C16.0091 1.14278 16.001 1.1429 15.9927 1.14296C15.9845 1.14303 15.9764 1.14304 15.9693 1.14299C15.9693 1.14299 15.9697 1.14234 15.97 1.14191L16.0427 1.14123ZM23.286 0.310421L23.2356 0.309418L23.2612 0.309217L23.3249 0.309579L23.286 0.310421ZM38.6936 1.17729C38.6722 1.17746 38.6508 1.17762 38.6513 1.17687C38.6476 1.17671 38.6458 1.17652 38.6459 1.17632C38.6461 1.17611 38.6482 1.17589 38.652 1.17568C38.652 1.17568 38.682 1.17544 38.6948 1.17534L38.6936 1.17729ZM35.6511 1.14066C35.638 1.14058 35.6265 1.14041 35.6174 1.14017L35.6178 1.13953L35.6606 1.13919L35.6511 1.14066ZM9.58721 0.723511C9.57025 0.723738 9.55273 0.723875 9.53588 0.723914L9.51449 0.724082C9.51449 0.724082 9.54055 0.723231 9.55338 0.723131C9.56622 0.72303 9.57451 0.723395 9.58721 0.723511Z" fill="#FEC947"/>
</svg>
