<svg width="27" height="26" viewBox="0 0 27 26" fill="none" xmlns="http://www.w3.org/2000/svg">
<path d="M9.1597 1.53027C5.39878 1.53027 2.33838 4.50539 2.33838 8.16151V17.3432C2.33838 20.9993 5.39878 23.9745 9.1597 23.9745H18.6046C22.3655 23.9745 25.4259 20.9993 25.4259 17.3432V8.16151C25.4259 4.50539 22.3655 1.53027 18.6046 1.53027H9.1597ZM9.1597 2.55046H18.6046C21.7983 2.55046 24.3765 5.05683 24.3765 8.16151V17.3432C24.3765 20.4479 21.7983 22.9543 18.6046 22.9543H9.1597C5.96602 22.9543 3.38781 20.4479 3.38781 17.3432V8.16151C3.38781 5.05683 5.96602 2.55046 9.1597 2.55046ZM20.1788 5.61104C19.5992 5.61104 19.1293 6.06779 19.1293 6.63123C19.1293 7.19466 19.5992 7.65142 20.1788 7.65142C20.7583 7.65142 21.2282 7.19466 21.2282 6.63123C21.2282 6.06779 20.7583 5.61104 20.1788 5.61104ZM13.8822 7.14132C10.7006 7.14132 8.11027 9.65952 8.11027 12.7524C8.11027 15.8452 10.7006 18.3634 13.8822 18.3634C17.0637 18.3634 19.654 15.8452 19.654 12.7524C19.654 9.65952 17.0637 7.14132 13.8822 7.14132ZM13.8822 8.16151C16.4965 8.16151 18.6046 10.2109 18.6046 12.7524C18.6046 15.2939 16.4965 17.3432 13.8822 17.3432C11.2678 17.3432 9.1597 15.2939 9.1597 12.7524C9.1597 10.2109 11.2678 8.16151 13.8822 8.16151Z" fill="white"/>
</svg>
