<svg width="22" height="24" viewBox="0 0 22 24" fill="none" xmlns="http://www.w3.org/2000/svg">
<path d="M6.61827 5.90298C6.61827 3.89671 8.49103 1.04813 10.988 1.04813C13.485 1.04813 15.3578 3.89671 15.3578 5.90298M1 5.90298L2.08245 20.6411C2.12767 21.2544 2.41058 21.8281 2.87405 22.2464C3.33752 22.6648 3.94702 22.8965 4.57946 22.895H17.4091C18.0415 22.8965 18.651 22.6648 19.1145 22.2464C19.578 21.8281 19.8609 21.2544 19.9061 20.6411L20.9886 5.90298H1.01249H1Z" stroke="white" stroke-width="1.7" stroke-linecap="round" stroke-linejoin="round"/>
<path d="M7.86719 18.04C8.38282 18.6007 9.11569 19.2537 10.9884 19.2537C12.8612 19.2537 14.1097 18.165 14.1097 16.8263C14.1097 15.4876 12.8612 15.0057 10.9884 14.3989C9.11569 13.792 8.49144 12.6147 8.49144 11.9714C8.49144 10.6315 9.73994 9.54401 10.9884 9.54401C12.237 9.54401 12.8612 9.54401 14.1097 10.7577" stroke="white" stroke-width="1.7" stroke-linecap="round" stroke-linejoin="round"/>
</svg>
