<svg width="21" height="24" viewBox="0 0 21 24" fill="none" xmlns="http://www.w3.org/2000/svg">
<path d="M11.973 0.889221H14.7216C14.9215 1.90233 15.4712 3.1804 16.4359 4.44855C17.3798 5.6912 18.632 6.55695 20.3019 6.55695V9.39081C17.8685 9.39081 16.0403 8.23743 14.7493 6.79924V16.4755C14.7493 17.8767 14.3423 19.2464 13.5796 20.4115C12.8169 21.5766 11.733 22.4846 10.4647 23.0208C9.19647 23.5571 7.80092 23.6974 6.45456 23.424C5.1082 23.1506 3.87148 22.4759 2.90081 21.4851C1.93013 20.4943 1.2691 19.2319 1.00129 17.8576C0.733478 16.4833 0.870927 15.0588 1.39625 13.7643C1.92158 12.4697 2.81118 11.3633 3.95258 10.5848C5.09397 9.80632 6.43588 9.39081 7.80862 9.39081V12.2247C6.98498 12.2247 6.17983 12.474 5.49499 12.9411C4.81016 13.4081 4.2764 14.072 3.9612 14.8488C3.64601 15.6255 3.56354 16.4802 3.72422 17.3048C3.88491 18.1293 4.28153 18.8867 4.86393 19.4812C5.44634 20.0757 6.18837 20.4806 6.99619 20.6446C7.804 20.8086 8.64133 20.7244 9.40228 20.4027C10.1632 20.081 10.8136 19.5361 11.2712 18.8371C11.7288 18.138 11.973 17.3162 11.973 16.4755V0.889221Z" fill="white"/>
</svg>
